<?xml version="1.0" encoding="UTF-8"?>
<!DOCTYPE svg PUBLIC "-//W3C//DTD SVG 1.1//EN" "http://www.w3.org/Graphics/SVG/1.1/DTD/svg11.dtd">
<!-- Creator: CorelDRAW 2021.5 -->
<svg xmlns="http://www.w3.org/2000/svg" xml:space="preserve" width="178.818mm" height="60.0299mm" version="1.1" style="shape-rendering:geometricPrecision; text-rendering:geometricPrecision; image-rendering:optimizeQuality; fill-rule:evenodd; clip-rule:evenodd"
viewBox="0 0 2780.08 933.29"
 xmlns:xlink="http://www.w3.org/1999/xlink"
 xmlns:xodm="http://www.corel.com/coreldraw/odm/2003">
 <defs>
  <style type="text/css">
   <![CDATA[
    .fil3 {fill:#FEFEFE}
    .fil0 {fill:white;fill-rule:nonzero}
    .fil1 {fill:url(#id0)}
    .fil2 {fill:url(#id1)}
   ]]>
  </style>
  <linearGradient id="id0" gradientUnits="userSpaceOnUse" x1="172.89" y1="76.53" x2="194.63" y2="-9.3">
   <stop offset="0" style="stop-opacity:1; stop-color:#E6E6E6"/>
   <stop offset="1" style="stop-opacity:1; stop-color:white"/>
  </linearGradient>
  <linearGradient id="id1" gradientUnits="userSpaceOnUse" x1="401.74" y1="65.42" x2="357.11" y2="155.75">
   <stop offset="0" style="stop-opacity:1; stop-color:#999999"/>
   <stop offset="1" style="stop-opacity:1; stop-color:white"/>
  </linearGradient>
 </defs>
 <g id="Layer_x0020_1">
  <metadata id="CorelCorpID_0Corel-Layer"/>
  <path class="fil0" d="M1161.8 807.4l-136.36 0 0 -42.43c-39.48,25.86 -86.7,40.91 -137.42,40.91 -69.35,0 -132.13,-28.1 -177.57,-73.55 -45.44,-45.44 -73.55,-108.22 -73.55,-177.57 0,-69.34 28.12,-132.12 73.55,-177.57 45.44,-45.44 108.22,-73.55 177.57,-73.55 50.72,0 97.93,15.04 137.42,40.92l0 -167.81 136.36 -51.15 0 681.84 0 -0.02zm-191.12 -335.3c-21.15,-21.15 -50.36,-34.23 -82.64,-34.23 -32.29,0 -61.51,13.08 -82.65,34.23 -21.15,21.15 -34.23,50.37 -34.23,82.65 0,32.29 13.07,61.52 34.22,82.65 21.15,21.15 50.37,34.22 82.66,34.22 32.28,0 61.5,-13.07 82.65,-34.23 21.15,-21.15 34.23,-50.36 34.23,-82.65 0,-32.28 -13.08,-61.51 -34.23,-82.65l0 0 -0.01 0.01z"/>
  <path class="fil0" d="M1332.09 807.4l-136.39 0 0 -460.62 136.39 -37.4 0 498.01 0 0.02zm-68.2 -649.65c37.67,0 68.2,30.53 68.2,68.19 0,37.67 -30.53,68.2 -68.2,68.2 -37.65,0 -68.19,-30.53 -68.19,-68.2 0,-37.65 30.53,-68.19 68.19,-68.19z"/>
  <path class="fil0" d="M1503.4 806.18l-136.36 0 0 -459.3 136.36 -37.33 0 21.43c34.73,-18.15 74.22,-28.41 116.11,-28.41 69.34,0 132.12,28.12 177.57,73.55 2.19,2.18 4.33,4.41 6.44,6.67 2.11,-2.28 4.26,-4.5 6.45,-6.67 45.45,-45.45 108.24,-73.55 177.58,-73.55 69.34,0 132.11,28.12 177.57,73.55 41.96,41.96 69.14,98.71 73.07,161.75l0.48 0 0 13.83c0.01,0.67 0.01,1.32 0.01,1.98l-0.01 0 0 253.99 -134.25 0 0 -255.64c-0.44,-31.62 -13.43,-60.22 -34.21,-81 -21.15,-21.15 -50.37,-34.23 -82.65,-34.23 -32.29,0 -61.52,13.08 -82.66,34.23 -20.79,20.79 -33.79,49.39 -34.23,81.02l0 255.6 -134.25 0 0 -253.99 -0.01 0c0,-32.28 -13.08,-61.5 -34.23,-82.65 -21.15,-21.15 -50.37,-34.23 -82.65,-34.23 -32.28,0 -61.51,13.09 -82.65,34.23 -18.16,18.16 -30.36,42.26 -33.45,69.14l0 265.97 -0.01 0.03z"/>
  <path class="fil0" d="M2633.79 503.34c-5.79,-11.83 -13.49,-22.54 -22.7,-31.75 -21.48,-21.48 -51.15,-34.77 -83.94,-34.77 -32.79,0 -62.46,13.29 -83.95,34.77 -9.21,9.21 -16.91,19.93 -22.7,31.75l213.3 0 -0 0zm-212.82 105.32c5.74,11.45 13.28,21.84 22.24,30.82 21.48,21.48 51.17,34.77 83.94,34.77 18.03,0 34.92,-3.86 49.87,-10.76 15.7,-7.24 29.51,-17.81 40.53,-30.79l102.27 86.53c-23.64,27.84 -53.19,50.44 -86.68,65.94 -32.44,14.99 -68.35,23.35 -105.99,23.35 -69.83,0 -133.08,-28.33 -178.86,-74.11 -45.78,-45.78 -74.11,-109.03 -74.11,-178.86 0,-69.84 28.32,-133.07 74.09,-178.84 45.78,-45.77 109.03,-74.09 178.86,-74.09 69.84,0 133.08,28.31 178.85,74.09 45.77,45.77 74.09,109.01 74.09,178.85 0,7.88 -0.53,16.76 -1.56,26.54 -0.97,9.26 -2.32,17.97 -4.03,26.12l0 0.45 -71.21 0 -282.34 0 0 0 0.03 0z"/>
  <g id="_2604050376848">
   <path class="fil1" d="M112.39 0.01l-0.22 0 -0.32 0c-1.69,0 -3.53,0.02 -5.59,0.07l0 0c-11.79,0.29 -16.55,1.02 -24.11,3.85l0 0c-8.43,3.14 -7.85,2.63 -45.21,39.88l0 0c-19.43,19.34 -35.68,35.96 -36.14,36.97l0 0c-1.86,3.9 -0.49,7.38 4.27,10.79l0 0c1.42,1.03 35.11,16.77 74.86,34.99l0 0c39.74,18.22 78.78,36.15 86.75,39.83l0 0c7.94,3.68 16.23,7.28 18.42,8.01l0 0c5.98,2.01 11.87,1.64 16.66,-0.99l0 0c2.82,-1.57 17.39,-15.22 70.74,-66.3l0 0c36.97,-35.38 68.59,-65.33 70.25,-66.51l0 0c3.26,-2.32 9.56,-4.95 12.09,-5.05l0 0 1.55 -0.05 -1.69 -0.52c-1.4,-0.41 -210.56,-31.51 -231.1,-34.35l0 0c-3.08,-0.45 -6.48,-0.63 -11.18,-0.63l0.01 0 -0.01 0 -0.02 0.01z"/>
   <path class="fil2" d="M347.3 39.1c-5.51,2.69 0.49,-2.89 -83.22,77.33l0 0c-67.35,64.51 -62.21,60.25 -72.15,59.73l0 0c-3.33,-0.16 -6.55,-0.67 -8.1,-1.27l0 0c-2.54,-1.02 -35.78,-16.19 -38.72,-17.68l0 0 -2.68 -1.35 0 188.66 0 188.07 124.08 0 122.98 0 0 -234.24c0,-168.15 0.05,-235.7 -0.39,-237.85l0 0c-1.53,-7.27 -6.7,-14.89 -13.02,-19.17l0 0c-5.25,-3.58 -10.64,-5.37 -16.11,-5.37 -4.19,0 -8.41,1.05 -12.66,3.14l0 0 0 0 0 0 0 0.01z"/>
   <rect class="fil3" x="142.42" y="529.04" width="247.07" height="404.25"/>
  </g>
 </g>
</svg>
