<?xml version="1.0" encoding="UTF-8"?>
<!DOCTYPE svg PUBLIC "-//W3C//DTD SVG 1.1//EN" "http://www.w3.org/Graphics/SVG/1.1/DTD/svg11.dtd">
<!-- Creator: CorelDRAW -->
<svg xmlns="http://www.w3.org/2000/svg" xml:space="preserve" width="300mm" height="100mm" version="1.1" style="shape-rendering:geometricPrecision; text-rendering:geometricPrecision; image-rendering:optimizeQuality; fill-rule:evenodd; clip-rule:evenodd"
viewBox="0 0 29994.14 9998.05"
 xmlns:xlink="http://www.w3.org/1999/xlink"
 xmlns:xodm="http://www.corel.com/coreldraw/odm/2003">
 <defs>
  <style type="text/css">
   <![CDATA[
    .fil0 {fill:none}
    .fil2 {fill:#555C66}
    .fil1 {fill:#FF6600}
    .fil3 {fill:#555C66;fill-rule:nonzero}
    .fil4 {fill:#FF6600;fill-rule:nonzero}
   ]]>
  </style>
 </defs>
 <g id="Layer_x0020_1">
  <metadata id="CorelCorpID_0Corel-Layer"/>
  <rect class="fil0" width="29994.14" height="9998.05"/>
  <g id="_2357561056944">
   <g>
    <g>
     <rect class="fil1" x="2398.88" y="5219.17" width="1488.56" height="2115.34" rx="214.77" ry="214.77"/>
     <rect class="fil1" x="4781.52" y="4042.07" width="1488.56" height="3292.43" rx="214.77" ry="334.28"/>
     <rect class="fil1" x="7164.15" y="2628.83" width="1488.56" height="4705.66" rx="214.77" ry="477.76"/>
    </g>
    <path class="fil2" d="M7687.43 2028.52l566.79 338.18c-74.11,184.63 -451.88,655.64 -579.53,812.75 -120.48,148.31 -212.33,243.35 -322.52,379.61 -437.11,540.5 -1335.29,1245.93 -1931.43,1643.76 -514.02,343.01 -1240.15,731.56 -1878.61,962.09 -362.85,131.03 -689.43,250.29 -1077.99,355.86l-1184.07 270.09c1972.6,39.9 4085.9,-778.55 5565.18,-1783.74 527.73,-358.59 759.92,-582.06 1227.93,-971.72 294.38,-245.1 1039.77,-1123.47 1072.87,-1148.28 140.06,59.87 506.56,258.01 625.49,341.69l-6.94 -2477.13c-219.94,94.75 -1758.57,1074.3 -2077.17,1276.83z"/>
   </g>
   <path class="fil3" d="M11870.55 4231.39l63.82 0c71.18,0 129.96,53.06 138.97,121.78 18.78,95.42 44.26,177.46 76.48,246.07 30.73,65.44 67.88,119.27 111.45,161.43 41.77,39.83 91.21,70.01 148.35,90.41 60.14,21.48 129.54,32.25 208.32,32.25 24.32,0 47.17,-1.61 68.56,-4.76 22.57,-3.32 43.52,-8.01 62.85,-13.97l5.59 -1.59c16.69,-5.39 33.11,-12.21 49.16,-20.33 15.97,-8.07 30.93,-17.43 44.78,-27.92l-0.13 -0.18c13.68,-10.63 25.5,-21.8 35.34,-33.4 10.22,-12.05 19.23,-25.25 26.89,-39.52 6.27,-11.68 11.11,-24.7 14.52,-39.07 3.53,-14.9 5.29,-31.34 5.29,-49.33 0,-20.18 -2.22,-38.26 -6.67,-54.25 -4.56,-16.36 -11.51,-32.07 -20.85,-47.15l-0.39 -0.65 -0.16 0.1c-10.91,-17.94 -25.17,-36.1 -42.63,-54.41 -17.56,-18.4 -37.67,-36.38 -60.26,-53.89 -56.05,-33.28 -118.72,-70.66 -210.5,-125.82 -66.04,-39.69 -130.94,-79.15 -195.97,-119.45 -59.34,-36.76 -116.91,-72.88 -173.61,-109.04 -57.12,-36.44 -107.57,-69.25 -150.37,-97.94l-0.08 0.12c-116.01,-77.11 -203.89,-167.49 -263.63,-270.94 -61.68,-106.78 -92.53,-224.64 -92.53,-353.33 0,-50.68 5.27,-100.5 15.87,-149.51 10.46,-48.44 26.4,-95.93 47.87,-142.49 20.88,-44.94 46.2,-87.7 75.93,-127.96 28.75,-38.91 61.91,-75.33 99.44,-108.93l1.46 -1.28c36.78,-33.05 75.83,-62.18 117.18,-87.43 42.54,-25.97 87.96,-48.46 136.23,-67.49 48.17,-18.79 99.46,-33.14 153.73,-42.89 54.18,-9.77 108.31,-14.7 162.22,-14.7 35.76,0 72.2,2.25 109.32,6.78 33.78,4.14 70,10.86 108.71,20.21l0.03 -0.15c34.46,7.99 71.29,18.49 110.55,31.5 39.08,12.98 76.42,27.05 111.92,42.27l1.57 0.7 0.07 -0.15c18.12,8.02 39.52,17.94 63.08,29.1 12.19,5.78 33.13,16.12 60.15,29.62l0.11 -0.23c24.84,12.24 47.94,25.54 69.37,39.81l0.38 0.26 0.17 -0.26c19.94,13.29 40.57,29.42 61.93,48.27 21.1,18.61 40.01,38.8 56.89,60.37 16.58,21.18 31.15,43.76 43.9,67.62l1.23 2.4 0.42 -0.22c14.05,27.63 24.56,57.37 31.45,89.2 6.5,30.02 9.76,61.29 9.76,93.89l0 377.15c0,77.4 -62.77,140.17 -140.17,140.17l-67.27 0c-74.31,0 -135.1,-57.83 -139.85,-130.93 -7.04,-48.43 -16.25,-93.32 -27.68,-134.64 -11.61,-41.94 -25.7,-80.47 -42.3,-115.6l-0.28 -0.61c-16.58,-34.13 -34.45,-64.79 -53.67,-91.85 -18.67,-26.29 -38.94,-49.68 -60.87,-70.07l-1.84 -1.76c-21.45,-20 -43.62,-37.02 -66.35,-51.03 -22.62,-13.94 -47.14,-25.6 -73.38,-34.92 -27.18,-9.65 -54.76,-16.86 -82.65,-21.64 -27.08,-4.65 -55.34,-6.94 -84.68,-6.94 -17.38,0 -34.1,1.42 -50.18,4.2 -18.39,3.19 -35.38,7.5 -50.96,12.89l-0.17 0.05 0.17 0.49c-17.42,6 -32.64,12.73 -45.83,20.07 -14,7.8 -27.58,17.08 -40.78,27.67l-3.2 2.49c-9.55,8.43 -18.57,17.85 -26.98,28.23 -8.97,11.06 -17.19,23.61 -24.53,37.59 -5.69,10.8 -10.13,22.87 -13.28,36.11 -3.19,13.41 -4.79,27.94 -4.79,43.59 0,8.85 0.66,16.67 1.93,23.43 1.5,7.96 4.09,16.9 7.7,26.69l1.02 2.89c3.5,8.61 7.8,17.26 12.88,25.88 6.97,11.86 15.36,24 25.16,36.39l4.18 5.57c5.98,7.72 17.61,18.61 34.65,32.51 23.67,19.31 53.34,40.32 88.78,62.94l0.38 0.26 0.17 -0.26c40.03,25.65 86.42,53.82 139.2,84.42 52.13,30.23 111.63,63.53 178.61,99.82l3.21 1.79 0.08 -0.15c163.07,93.17 78.72,45.22 116.8,66.9l97.11 55.15 0.07 -0.12c27.86,15.39 57.37,32.77 87.91,51.62 30.31,18.68 57.46,36.46 81.65,53.21l0.99 0.71 0.11 -0.16c22.94,16.18 46.75,34.59 71.29,55 24.52,20.4 46.41,40.15 65.81,59.24l1.64 1.66c21.98,22.32 43.08,46.16 62.97,71.42 18.74,23.79 37.72,50.41 56.78,79.93l0.12 -0.08c18.03,27.57 34,57.02 47.99,88.33 13.6,30.51 24.5,61.69 32.74,93.56l0.41 1.67 0.13 -0.04c7.57,30.66 13.3,61.84 17.01,93.49 3.81,32.38 5.78,64.86 5.78,97.44 0,54.59 -6.04,108.79 -18,162.57 -11.9,53.54 -29.47,104.3 -52.58,152.31l-4.54 8.6c-21.96,43.7 -47.51,84.93 -76.86,123.54 -31.79,41.82 -67.26,79.87 -106.6,113.99l-3.32 2.77c-38.47,33.5 -79.55,62.86 -123.31,88.16 -44.41,25.67 -92.88,47.94 -145.47,66.86l0.06 0.18c-52.07,18.84 -105.43,32.82 -160.03,41.99 -55.25,9.3 -110.93,13.91 -167.01,13.91 -32.34,0 -67.24,-2.13 -104.49,-6.44 -35.49,-4.11 -71.75,-10.14 -108.48,-18.13 -34.64,-7.52 -72.24,-16.72 -112.7,-27.52 -32.3,-8.64 -73.74,-20.69 -124.19,-36.13l-7.07 -2.34 -0.05 0.16c-22.4,-8.14 -42.49,-15.6 -60.65,-22.47l-65.59 -25.28c-25.03,-9.89 -49.17,-20.56 -72.34,-32.01 -24.56,-12.13 -47.69,-24.85 -69.11,-38.21l-0.09 0.14c-23.99,-14.76 -47.37,-32.21 -70.12,-52.3 -22.97,-20.27 -42.66,-41.01 -59.1,-62.17 -21.8,-28.03 -38.35,-59.24 -49.61,-93.59 -10.79,-32.83 -16.18,-67.11 -16.18,-102.75l0 -411.06c0,-77.4 62.76,-140.16 140.16,-140.16zm3952.37 -1418.97l0 1341.83c0,55.18 -1.6,111.17 -4.72,167.75 -3.13,56.75 -7.51,107.24 -13.05,151.63 -0.51,4.12 -1.19,8.15 -2.03,12.14 -5.99,43.66 -12.82,83.88 -20.51,120.51 -8.73,41.75 -18.94,80.84 -30.63,117.31l-1.1 3.28c-14.21,40.82 -31.45,79.24 -51.68,115.17 -20.9,37.13 -44.87,72.22 -71.89,105.18 -2.2,2.68 -4.47,5.25 -6.81,7.73 -25.08,30.01 -53.21,58.84 -84.37,86.36 -33.25,29.37 -69.42,56.8 -108.42,82.13l-1.2 0.75c-39.63,27.25 -82.53,50.87 -128.6,70.88 -48.78,21.18 -98.73,37.78 -149.71,49.87 -49.29,11.68 -103.53,20.69 -162.84,26.87 -57.98,6.08 -117.01,9.15 -177.05,9.15 -131.32,0 -250.05,-11.78 -356.02,-35.37 -110.61,-24.65 -205.93,-62.49 -285.84,-113.55l-5.36 -3.6c-38.42,-26.2 -73.15,-53.85 -104.29,-82.81 -31.71,-29.45 -61.63,-62.09 -89.84,-97.72l-0.47 -0.61c-28.38,-36.05 -53.04,-73.53 -74.08,-112.43 -21.56,-39.85 -39.62,-80.99 -54.23,-123.5l-1.61 -4.99c-11.19,-31.45 -20.5,-67.38 -28.12,-107.86 -7.39,-39.2 -13.4,-85.02 -18.23,-137.32 -4.61,-49.77 -7.97,-104.09 -10.11,-162.9 -2.45,-67.01 -3.64,-130.59 -3.64,-191.19l0 -890.53c0,-63.2 -3.91,-112.25 -11.69,-147.1 -4.24,-19 -7.37,-29.49 -9.34,-31.47 -4.33,-4.33 -8.31,-8.87 -11.96,-13.59l-2.42 -0.78c-8.47,-2.31 -17.32,-4.09 -26.48,-5.26 -10.05,-1.29 -24.07,-1.97 -42.29,-1.97l-85.65 0c-77.41,0 -140.17,-62.76 -140.17,-140.17l0 -63.81c0,-77.41 62.76,-140.17 140.17,-140.17l558.24 0c24.85,0 49.17,3.1 72.64,9.13 30.17,7.74 56.55,20.58 78.83,38.2l2.72 2.21c23.73,19.74 42.32,44.2 55.59,73.67 9.94,22.07 17.08,46.79 21.31,74.35 2.7,17.57 4.65,40.37 5.83,68.44 0.94,22.36 1.07,48.39 0.43,78.13 -0.59,26.87 -1.02,56.23 -1.29,88.19l0.12 1105.44c0,29.3 0.24,49.68 0.67,62.53 0.59,17.39 1.72,40.5 3.29,68.46 1.94,27.58 3.94,52.12 6.08,73.3 2.22,21.91 5.13,46.09 8.79,72.76l0.23 -0.03c4.55,29.94 9.05,54.99 13.47,74.59 4.57,20.23 9.91,39.47 16.15,57.69l0.37 1.16 0.18 -0.06c5.78,17.61 11.74,32.89 17.77,45.62 5.6,11.79 11.68,22.53 18.18,32.02 2.46,3.6 4.71,7.28 6.79,11.01 4.7,7.33 10.33,14.81 16.81,22.39 7.23,8.44 16.67,17.72 28.16,27.72 2.52,2.19 4.93,4.46 7.24,6.78 7.61,6.19 16.49,12.62 26.58,19.24 14.14,9.27 27.37,16.87 39.63,22.73l3.72 1.85 0.11 -0.22c13.67,7.04 29.01,13.61 45.93,19.61 18.31,6.49 36.73,11.88 55.2,16.07l7.34 1.86c16.7,3.72 35.16,6.67 55.4,8.85 20.35,2.21 43.64,3.29 69.88,3.29 64.92,0 123.03,-6.6 174.78,-19.77l8.44 -1.87c24.65,-6.73 48.25,-14.37 70.67,-22.99 23.34,-8.97 46.85,-19.47 70.53,-31.58 25.45,-15.14 48.24,-30.41 68.36,-45.74 20.07,-15.3 37.61,-30.6 52.62,-45.76 13.57,-13.97 26.53,-29.8 38.83,-47.46 10.51,-15.1 20.02,-31.2 28.45,-48.26 6.41,-18.61 12.27,-40.14 17.54,-64.56 6.35,-29.43 11.91,-63.41 16.59,-101.91 0.45,-3.78 1.04,-7.5 1.77,-11.17 4.23,-35.53 7.51,-75.73 9.83,-120.46 2.29,-43.97 3.41,-96.92 3.41,-158.38l0 -1326.87c0,-77.41 62.76,-140.17 140.16,-140.17l151.78 0c77.4,0 140.16,62.76 140.16,140.17zm940.08 2420.24l-324.25 0c-77.41,0 -140.17,-62.77 -140.17,-140.17l0 -1879.36c0,-37.11 -0.7,-67.68 -2.11,-91.32 -1.52,-25.43 -3.72,-47.17 -6.63,-65.02 -2.21,-13.63 -4.33,-24.52 -6.31,-32.58l-0.69 -0.49c-3.66,-2.52 -8.45,-4.84 -14.24,-6.89l-1.63 -0.6c-18.59,-6.76 -41.06,-10.17 -67.39,-10.17l-83.93 0c-77.4,0 -140.17,-62.77 -140.17,-140.17l0 -60.36c0,-77.4 62.77,-140.17 140.17,-140.17l831.31 0c50.2,0 101.43,1.48 153.56,4.35 51.47,2.85 97.08,6.78 137.07,11.7 4.05,0.5 8.04,1.17 11.97,2 40.99,5.62 79.11,12.48 114.34,20.57 39.05,8.96 77.14,20.1 114.23,33.38 37.8,13.56 72.46,28.62 103.94,45.25 33.85,17.88 65.29,37.71 94.26,59.55l5.81 4.63c26.63,20.25 51.96,42.54 75.93,66.85 25.44,25.77 49.48,54 72.1,84.62l0.15 0.2c24.95,30.34 46.4,61.03 64.24,91.91 1.69,2.91 3.25,5.86 4.71,8.85 17.93,32.15 32.93,65.57 44.9,100.09l0.05 0.17 0.49 -0.17c12.18,35.46 21.63,73.79 28.26,115.03 6.55,40.68 9.88,80.92 9.88,120.71 0,54.14 -4.94,107.71 -14.81,160.58 -9.82,52.59 -24.54,102.79 -44.17,150.6l0.28 0.11c-19.8,48.6 -44.25,93.72 -73.21,135.38 -28.21,40.58 -62,78.85 -101.21,114.78l0.25 0.27c-37.46,34.6 -79.19,65.22 -125.1,91.94 -44.06,25.63 -92.2,47.53 -144.4,65.86 -52.78,18.53 -107.16,32.09 -163.12,40.71 -56.03,8.64 -114.9,12.92 -176.65,12.92 -26.9,0 -57.98,-1.05 -93.15,-3.14 -32.2,-1.9 -64.36,-4.7 -96.38,-8.31l-4.83 -0.63c-13.9,-1.5 -28.29,-3.34 -43.19,-5.5l0 901.88c0,77.4 -62.76,140.17 -140.16,140.17zm140.16 -1428.77l35.32 4.86c3.33,0.48 6.61,1.09 9.85,1.81 12.86,1.85 27.6,3.47 44.06,4.85 16.23,1.37 32.57,2.05 48.85,2.05 16.14,0 31.72,-1.76 46.72,-5.29 15.24,-3.6 30.98,-9.34 47.18,-17.26 17.67,-8.63 34.13,-18.66 49.23,-30.03l6.67 -4.73c13.16,-10.44 25.54,-22.03 37.04,-34.7l0.8 -0.87 -0.25 -0.22c13.73,-14.93 26.29,-31.58 37.66,-49.91l4.02 -6.09c9.55,-16.27 18.55,-34.75 26.93,-55.35l3.36 -7.64c6.92,-18.08 12.31,-37.33 16.12,-57.67 4.22,-22.43 6.34,-47.38 6.34,-74.72 0,-58.79 -8.38,-113.34 -25.11,-162.64 -8.33,-24.59 -18.03,-46.43 -29.03,-65.56 -10.52,-18.27 -23.76,-36.32 -39.63,-54.14l-0.5 -0.58c-14.92,-16.88 -30.88,-31.64 -47.89,-44.13 -17.91,-13.14 -37.08,-24.35 -57.48,-33.46l-1.57 -0.73 -0.08 0.18c-20.55,-9.49 -42.21,-16.56 -64.92,-21.19 -23.13,-4.71 -49.63,-7.08 -79.42,-7.08 -13.36,0 -24.94,0.26 -34.05,0.82 -10.94,0.66 -24.29,1.87 -40.22,3.69l0 715.72zm3389.76 1432.22l-459.93 0c-13.26,0 -29.96,-0.47 -50.98,-1.48 -18.73,-0.92 -34.79,-2.3 -48.07,-4.18 -18.46,-2.63 -36.84,-7.11 -55.17,-13.54l-0.48 -0.17 -0.06 0.17c-18.64,-6.57 -36.55,-15.08 -53.69,-25.72l-7.58 -5.07c-12.74,-8.42 -25.45,-18.35 -38.18,-29.99 -14.39,-13.16 -28.03,-27.85 -40.95,-44.36 -12.2,-14.73 -22.4,-27.48 -30.61,-38.36 -8.69,-11.48 -21.22,-28.7 -37.36,-51.29l-0.26 0.18 -612.29 -854.96 -19.65 1.63 -12.58 0.62 0 926.37c0,77.4 -62.76,140.16 -140.17,140.16l-313.9 0c-77.4,0 -140.16,-62.76 -140.16,-140.16l0 -1881.67c0,-37.29 -0.7,-67.71 -2.11,-90.96 -1.42,-23.37 -3.63,-43.84 -6.63,-61.41 -1.84,-10.64 -3.9,-19.55 -6.18,-26.67 -6.67,-4.91 -13.91,-8.79 -21.7,-11.64 -16.27,-5.94 -37.06,-8.92 -62.38,-8.92l-85.66 0c-77.4,0 -140.17,-62.76 -140.17,-140.16l0 -68.99c0,-77.4 62.77,-140.17 140.17,-140.17l818.09 0c58.01,0 117.43,1.46 178.06,4.3 58.82,2.74 111.1,6.69 156.91,11.75l0.54 0.07c43.48,5.04 86.07,11.31 128.28,18.95 40.88,7.41 77.27,15.7 109.18,25l6.43 2.05 0.14 -0.4c30.54,10.5 62.6,24.04 96.03,40.44 32.19,15.79 62.72,33.14 91.57,51.93l1.63 1.1c31.25,20.92 60.24,43.4 86.59,67.41 25,22.77 49.47,48.89 73.25,78.52l0.19 -0.16c23.69,29.15 44.74,59.98 63.24,92.53 18.47,32.56 34.37,66.59 47.74,102.13 14.2,37.37 24.79,76.3 31.69,116.59 6.92,40.33 10.4,81.56 10.4,123.57 0,43.12 -3.63,85.81 -10.83,127.89 -7.21,42.07 -18.04,82.63 -32.43,121.53 -14.46,39.03 -33.04,76.9 -55.7,113.56 -22.46,36.3 -48.07,69.94 -76.8,100.82 -28.92,31.09 -61.55,59.95 -97.69,86.58 -35.41,26.1 -73.36,49.64 -113.71,70.64 -4.1,2.13 -8.27,4.04 -12.48,5.73 -21.98,10.89 -44.32,20.91 -67.01,30l355.87 493.7c3.09,4.29 5.9,8.72 8.44,13.23 19.65,31.11 40.91,62.36 63.72,93.71 2.01,2.77 3.9,5.6 5.67,8.47 18.17,24.53 35.69,46.21 52.57,65.11l0.75 0.86 0.35 -0.31c18.9,21.45 36.11,38.98 51.65,52.78 16.86,14.94 33.27,27.61 49.23,38.11 15.53,10.22 31.9,19.27 48.96,27.04 16.51,7.53 33.08,13.6 49.62,18.13 17.35,4.75 39.53,9.85 67.06,15.3 27.72,5.5 53.7,9.91 77.6,13.06 70.43,9.18 121.74,69.35 121.66,138.53l0.45 0 0 60.37c0,77.4 -62.77,140.16 -140.17,140.16zm-1467.84 -1451.09l16.24 -0.43c41.44,-1.56 81.27,-6.76 119.44,-15.49l-0.02 -0.12c38.12,-8.95 73.29,-20.36 105.58,-34.24 31.06,-13.36 58.93,-28.75 83.69,-46.19l3.69 -2.5c22.57,-16.44 42.84,-34.46 60.7,-54.13 17.85,-19.67 32.98,-40.87 45.25,-63.64l0.6 -1.06c12.17,-22.17 21.33,-45.16 27.41,-69.02 6.06,-23.66 9.06,-48.56 9.06,-74.67 0,-26.3 -2.14,-51.35 -6.37,-75.09 -4.19,-23.66 -10.25,-45.87 -18.07,-66.61l-0.18 0.07c-8.63,-22.6 -18.19,-42.3 -28.57,-58.87 -10.35,-16.52 -23,-32.6 -37.88,-48.11l-0.28 -0.31c-14.38,-14.64 -30.08,-27.71 -47.17,-39.16 -17.57,-11.78 -37.58,-22.37 -60.12,-31.71 -21.83,-9.15 -44.42,-15.91 -67.69,-20.24 -24.13,-4.5 -51.54,-6.76 -82.17,-6.76 -12.8,0 -26.65,0.58 -41.43,1.77 -18.04,1.45 -35.89,3.38 -53.23,5.79l-28.47 3.9 0 696.8zm2307.67 -704.8l0 616.52 764.15 0c77.4,0 140.16,62.76 140.16,140.16l0 124.18c0,77.41 -62.76,140.17 -140.16,140.17l-764.15 0 -0.05 677.53c0.25,14.02 0.83,28.58 1.8,44.42l10.15 0.75c7.72,0.49 19.37,0.75 34.77,0.75l382.31 0c45.71,0 75.13,-0.12 86.12,-0.38 20.71,-0.5 42.56,-1.52 66.13,-3.1 16.44,-1.08 31.69,-2.86 45.83,-5.27 13.56,-2.31 24.85,-4.88 33.94,-7.68l5.38 -1.53c6.37,-2.05 12.88,-4.72 19.47,-7.9 7.88,-3.83 14.59,-7.73 20.22,-11.66 7.57,-5.28 16.75,-12.6 27.3,-21.71 10.83,-9.33 22.48,-20.15 34.86,-32.28 13.4,-13.68 28.24,-30.41 44.56,-50.34 16.8,-20.51 31.93,-40.39 45.2,-59.49l-0.11 -0.07c14.79,-21.72 30.53,-46.97 47.14,-75.96 15.39,-26.85 30.94,-56.25 46.53,-88.2 24.23,-49.77 74.06,-78.71 125.93,-78.76l70.71 -0.08c77.4,0 140.17,62.77 140.17,140.17 0,18.04 -3.41,35.28 -9.62,51.13l-193.51 562.89c-19.94,58.13 -74.32,94.66 -132.5,94.66l-1413.69 0.06c-77.4,0 -140.16,-62.76 -140.16,-140.16l0 -1875.92c0,-42.14 -0.41,-73.8 -1.25,-94.13 -0.95,-22.87 -2.64,-44.61 -5.13,-65.36 -0.97,-8.16 -1.98,-14.58 -3.02,-19.27 -3.62,-2.78 -9.08,-5.48 -16.32,-8.07l-7.43 -2.89c-16.82,-4.68 -39.34,-7.01 -67.58,-7.01l-79.33 0c-77.4,0 -140.17,-62.76 -140.17,-140.17l0 -60.37c0,-77.4 62.77,-140.17 140.17,-140.17l1733.91 0c77.4,0 140.17,62.77 140.17,140.17l0 497.88c0,77.4 -62.77,140.16 -140.17,140.16l-38.51 0c-71.54,0 -130.55,-53.59 -139.1,-122.81 -6.69,-31.5 -13.82,-61.56 -21.32,-90.03 -7.47,-28.39 -15.09,-53.49 -22.72,-75.12l-1.18 -3.52c-4.76,-12.23 -10.12,-22.98 -16.05,-32.21 -4.74,-7.37 -9.46,-13.13 -14.1,-17.29 -4.76,-4 -11.11,-7.78 -19.01,-11.28 -10.56,-4.66 -22.03,-8.23 -34.38,-10.64l-0.05 0.24c-20.8,-3.63 -44.85,-6.42 -72.12,-8.28 -26.7,-1.81 -59.31,-2.76 -98.08,-2.76l-476.12 0zm4237.72 2545.67c-76.62,0 -146.62,-4.71 -210.05,-14.21 -66.76,-10.01 -126.37,-25.57 -178.87,-46.78l-7.31 -3.18c-51.33,-21.14 -97.2,-47.41 -137.51,-78.66 -44.47,-34.47 -82.19,-74.47 -113.01,-119.71 -29.2,-42.88 -53.33,-90.65 -72.33,-143.14 -18.44,-50.98 -31.9,-105.43 -40.36,-163.23l-0.58 -4.62c-7.39,-51.38 -13.04,-106.91 -16.88,-166.45 -3.98,-61.93 -6.02,-124.83 -6.02,-188.39l0 -878.36 -612.99 1333.66c-23.44,51.32 -74.08,81.61 -127.03,81.64l0 0.49 -54.04 0c-60.85,0 -112.65,-38.8 -132.01,-93l-607.99 -1322.79 0 1275.62c0,77.4 -62.77,140.17 -140.17,140.17l-144.87 0c-77.41,0 -140.17,-62.77 -140.17,-140.17l0 -2282.36c0,-77.41 62.76,-140.17 140.17,-140.17l321.37 0c59.63,0 110.56,37.25 130.81,89.75l695.1 1498.91 683.84 -1505.99c23.33,-51.77 74.26,-82.43 127.58,-82.47l0 -0.2 321.37 0c77.4,0 140.17,62.76 140.17,140.17l0.03 2006.5c0.22,19.06 1.1,41.97 2.59,68.63 1.45,25.76 3.29,50.09 5.48,72.81 2.37,24.73 5.46,48.87 9.19,72.49 3.2,20.22 7.9,44.57 13.93,72.61l0.86 4.46c4.45,18.72 9.65,36.11 15.62,52.14 5.97,16.1 13.57,32.38 22.79,48.85 7.19,12.83 15.2,24.37 24.12,34.48 7.99,9.06 16.75,16.98 26.27,23.62l5.76 4.22c4.21,2.17 9.32,4.1 15.34,5.79 10.55,2.97 23.86,4.47 39.81,4.47 77.4,0 140.17,62.76 140.17,140.16l0 62.09c0,77.4 -62.77,140.17 -140.17,140.17zm936.42 -2545.67l0 616.52 764.15 0c77.4,0 140.17,62.76 140.17,140.16l0 124.18c0,77.41 -62.77,140.17 -140.17,140.17l-764.15 0 -0.04 677.53c0.24,14.02 0.83,28.58 1.79,44.42l10.15 0.75c7.73,0.49 19.37,0.75 34.77,0.75l382.32 0c45.7,0 75.12,-0.12 86.11,-0.38 20.72,-0.5 42.57,-1.52 66.13,-3.1 16.44,-1.08 31.7,-2.86 45.83,-5.27 13.56,-2.31 24.85,-4.88 33.94,-7.68l5.38 -1.53c6.37,-2.05 12.88,-4.72 19.47,-7.9 7.89,-3.83 14.6,-7.73 20.23,-11.66 7.57,-5.28 16.74,-12.6 27.3,-21.71 10.82,-9.33 22.47,-20.15 34.86,-32.28 13.4,-13.68 28.24,-30.41 44.56,-50.34 16.8,-20.51 31.93,-40.39 45.2,-59.49l-0.11 -0.07c14.79,-21.72 30.53,-46.97 47.14,-75.96 15.38,-26.85 30.93,-56.25 46.52,-88.2 24.24,-49.77 74.07,-78.71 125.93,-78.76l70.72 -0.08c77.4,0 140.16,62.77 140.16,140.17 0,18.04 -3.41,35.28 -9.62,51.13l-193.51 562.89c-19.94,58.13 -74.31,94.66 -132.49,94.66l-1413.69 0.06c-77.4,0 -140.17,-62.76 -140.17,-140.16l0 -1875.92c0,-42.14 -0.4,-73.8 -1.24,-94.13 -0.96,-22.87 -2.65,-44.61 -5.14,-65.36 -0.96,-8.16 -1.97,-14.58 -3.02,-19.27 -3.62,-2.78 -9.07,-5.48 -16.32,-8.07l-7.42 -2.89c-16.82,-4.68 -39.35,-7.01 -67.59,-7.01l-79.33 0c-77.4,0 -140.16,-62.76 -140.16,-140.17l0 -60.37c0,-77.4 62.76,-140.17 140.16,-140.17l1733.92 0c77.4,0 140.16,62.77 140.16,140.17l0 497.88c0,77.4 -62.76,140.16 -140.16,140.16l-38.52 0c-71.53,0 -130.54,-53.59 -139.1,-122.81 -6.68,-31.5 -13.82,-61.56 -21.32,-90.03 -7.47,-28.39 -15.09,-53.49 -22.71,-75.12l-1.19 -3.52c-4.76,-12.23 -10.12,-22.98 -16.05,-32.21 -4.73,-7.37 -9.46,-13.13 -14.1,-17.29 -4.75,-4 -11.1,-7.78 -19.01,-11.28 -10.55,-4.66 -22.03,-8.23 -34.38,-10.64l-0.04 0.24c-20.81,-3.63 -44.85,-6.42 -72.13,-8.28 -26.69,-1.81 -59.31,-2.76 -98.07,-2.76l-476.13 0z"/>
   <path class="fil4" d="M11818.47 7312.91c-28.98,0 -49.38,-6.25 -61.23,-18.76 -11.86,-12.52 -17.78,-33.25 -17.78,-62.23l0 -1240.48c0,-28.96 5.92,-49.72 17.78,-62.23 11.85,-12.5 32.24,-18.77 61.23,-18.77l746.65 0c28.97,0 49.38,5.93 61.24,17.78 11.85,11.86 17.78,32.92 17.78,63.22l0 152.09c0,30.29 -5.93,51.69 -17.78,64.21 -11.86,12.51 -32.26,18.76 -61.24,18.76l-474.07 0 0 258.77 375.31 0c28.96,0 49.38,5.92 61.23,17.78 11.86,11.85 17.79,32.92 17.79,63.21l0 152.1c0,30.28 -5.93,51.69 -17.79,64.2 -11.85,12.5 -32.26,18.77 -61.23,18.77l-375.31 0 0 430.61c0,28.97 -5.93,49.71 -17.78,62.23 -11.86,12.51 -32.26,18.76 -61.24,18.76l-193.57 0zm1244.72 0c-26.33,0 -45.1,-5.6 -56.29,-16.79 -11.2,-11.2 -16.8,-29.95 -16.8,-56.3l0 -880.98c0,-26.32 5.6,-45.1 16.8,-56.3 11.19,-11.19 29.95,-16.78 56.29,-16.78l181.73 0c27.66,0 46.75,5.59 57.28,16.78 10.54,11.2 15.81,29.97 15.81,56.3l0 880.98c0,26.34 -5.27,45.1 -15.81,56.3 -10.53,11.19 -29.61,16.79 -57.28,16.79l-181.73 0zm-84.92 -1309.6c0,-52.68 9.21,-88.57 27.64,-107.66 18.45,-19.09 52.02,-28.64 100.74,-28.64l94.82 0c48.71,0 82.3,9.56 100.73,28.64 18.44,19.09 27.66,54.98 27.66,107.66l0 27.64c0,52.68 -8.9,88.23 -26.68,106.66 -17.76,18.45 -51.67,27.66 -101.71,27.66l-94.82 0c-50.03,0 -83.94,-9.22 -101.72,-27.66 -17.79,-18.43 -26.66,-53.98 -26.66,-106.66l0 -27.64zm808.18 1309.6c-25.02,0 -42.8,-5.6 -53.33,-16.79 -10.54,-11.2 -15.81,-29.95 -15.81,-56.3l0 -796.04c0,-32.9 4.94,-57.28 14.83,-73.09 9.87,-15.8 29.95,-30.27 60.23,-43.45 51.37,-21.06 107.34,-38.19 167.91,-51.35 60.58,-13.18 132.34,-19.76 215.31,-19.76 136.95,0 239.33,35.88 307.16,107.65 67.82,71.78 101.72,174.82 101.72,309.14l0 566.9c0,26.34 -5.27,45.1 -15.8,56.3 -10.53,11.19 -28.97,16.79 -55.31,16.79l-187.65 0c-26.34,0 -44.77,-5.6 -55.31,-16.79 -10.53,-11.2 -15.8,-29.95 -15.8,-56.3l0 -555.04c0,-88.24 -38.85,-132.35 -116.54,-132.35 -30.29,0 -59.27,4.6 -86.91,13.83 -3.96,1.32 -5.93,3.95 -5.93,7.91l0 665.66c0,27.66 -4.94,46.75 -14.83,57.28 -9.87,10.55 -27.98,15.81 -54.32,15.81l-189.62 0zm1574.6 29.63c-152.76,0 -262.72,-25.67 -329.88,-77.04 -67.17,-51.35 -100.75,-134.96 -100.75,-250.86 0,-115.88 33.58,-198.83 100.75,-248.87 67.16,-50.05 177.78,-75.07 331.85,-75.07 31.6,0 63.21,1.31 94.8,3.94l0 -63.2c0,-42.15 -7.89,-71.45 -23.71,-87.89 -15.79,-16.48 -40.82,-24.7 -75.06,-24.7 -51.35,0 -91.51,24.36 -120.48,73.08 -7.92,13.17 -15.82,23.06 -23.71,29.62 -7.92,6.59 -17.79,9.89 -29.63,9.89 -11.86,0 -27.66,-3.96 -47.41,-11.86l-124.45 -49.38c-34.23,-14.49 -51.35,-32.92 -51.35,-55.31 0,-14.48 4.61,-30.29 13.83,-47.41 65.84,-140.89 196.86,-211.35 393.08,-211.35 146.17,0 251.84,33.91 317.04,101.72 65.17,67.83 97.76,168.24 97.76,301.23l0 513.58c0,34.23 -4.6,59.26 -13.83,75.06 -9.22,15.81 -27.64,29.63 -55.31,41.48 -80.31,35.56 -198.18,53.34 -353.56,53.34zm-108.65 -327.91c0,59.27 32.92,88.89 98.76,88.89 43.46,0 75.73,-1.97 96.79,-5.92 6.58,-1.33 9.87,-5.93 9.87,-13.83l0 -158.03c-21.06,-1.32 -55.3,-1.97 -102.7,-1.97 -34.25,0 -59.93,7.24 -77.04,21.73 -17.12,14.49 -25.67,37.52 -25.67,69.13zm983.99 298.27c-25.02,0 -42.8,-5.6 -53.33,-16.79 -10.54,-11.2 -15.81,-29.95 -15.81,-56.3l0 -796.04c0,-32.9 4.94,-57.28 14.83,-73.09 9.87,-15.8 29.95,-30.27 60.23,-43.45 51.37,-21.06 107.34,-38.19 167.92,-51.35 60.57,-13.18 132.33,-19.76 215.3,-19.76 136.95,0 239.33,35.88 307.16,107.65 67.82,71.78 101.72,174.82 101.72,309.14l0 566.9c0,26.34 -5.27,45.1 -15.8,56.3 -10.53,11.19 -28.96,16.79 -55.31,16.79l-187.65 0c-26.34,0 -44.77,-5.6 -55.31,-16.79 -10.53,-11.2 -15.8,-29.95 -15.8,-56.3l0 -555.04c0,-88.24 -38.85,-132.35 -116.54,-132.35 -30.29,0 -59.27,4.6 -86.91,13.83 -3.96,1.32 -5.93,3.95 -5.93,7.91l0 665.66c0,27.66 -4.94,46.75 -14.82,57.28 -9.87,10.55 -27.98,15.81 -54.33,15.81l-189.62 0zm1586.44 29.63c-144.85,0 -252.17,-36.54 -321.97,-109.63 -69.8,-73.09 -104.69,-177.46 -104.69,-313.08l0 -240.98c0,-135.64 36.87,-239.99 110.62,-313.09 73.75,-73.09 185.67,-109.63 335.8,-109.63 106.66,0 193.9,24.7 261.71,74.08 67.83,49.38 114.26,113.57 139.26,192.58 5.27,15.81 7.9,30.29 7.9,43.46 0,28.96 -17.78,49.38 -53.32,61.23l-156.06 43.45c-13.16,3.96 -25.67,5.93 -37.52,5.93 -14.49,0 -26.66,-4.6 -36.54,-13.82 -9.87,-9.23 -18.11,-24.38 -24.7,-45.43 -10.53,-30.29 -25.02,-51.69 -43.45,-64.21 -18.45,-12.51 -42.13,-18.76 -71.12,-18.76 -69.8,0 -104.69,43.45 -104.69,130.36l0 268.64c0,86.91 33.58,130.36 100.75,130.36 57.94,0 97.43,-30.27 118.51,-90.85 7.9,-21.07 16.14,-35.89 24.7,-44.45 8.56,-8.56 19.43,-12.84 32.58,-12.84 11.86,0 25.03,2.63 39.51,7.91l158.03 47.4c38.19,11.85 57.28,31.6 57.28,59.26 0,15.82 -3.3,30.94 -9.88,45.43 -34.24,86.92 -85.59,153.08 -154.08,198.52 -68.47,45.43 -158.01,68.15 -268.64,68.15zm851.64 -29.63c-26.33,0 -45.1,-5.6 -56.29,-16.79 -11.19,-11.2 -16.8,-29.95 -16.8,-56.3l0 -880.98c0,-26.32 5.61,-45.1 16.8,-56.3 11.19,-11.19 29.95,-16.78 56.29,-16.78l181.73 0c27.66,0 46.75,5.59 57.28,16.78 10.55,11.2 15.81,29.97 15.81,56.3l0 880.98c0,26.34 -5.26,45.1 -15.81,56.3 -10.53,11.19 -29.61,16.79 -57.28,16.79l-181.73 0zm-84.92 -1309.6c0,-52.68 9.21,-88.57 27.64,-107.66 18.45,-19.09 52.02,-28.64 100.74,-28.64l94.82 0c48.72,0 82.3,9.56 100.73,28.64 18.44,19.09 27.66,54.98 27.66,107.66l0 27.64c0,52.68 -8.9,88.23 -26.67,106.66 -17.77,18.45 -51.68,27.66 -101.72,27.66l-94.82 0c-50.03,0 -83.94,-9.22 -101.72,-27.66 -17.78,-18.43 -26.66,-53.98 -26.66,-106.66l0 -27.64zm1128.19 1339.24c-152.76,0 -262.72,-25.67 -329.88,-77.04 -67.17,-51.35 -100.75,-134.96 -100.75,-250.86 0,-115.88 33.58,-198.83 100.75,-248.87 67.16,-50.05 177.78,-75.07 331.85,-75.07 31.6,0 63.21,1.31 94.8,3.94l0 -63.2c0,-42.15 -7.89,-71.45 -23.71,-87.89 -15.79,-16.48 -40.82,-24.7 -75.06,-24.7 -51.35,0 -91.51,24.36 -120.48,73.08 -7.92,13.17 -15.82,23.06 -23.71,29.62 -7.92,6.59 -17.79,9.89 -29.63,9.89 -11.86,0 -27.66,-3.96 -47.41,-11.86l-124.45 -49.38c-34.23,-14.49 -51.35,-32.92 -51.35,-55.31 0,-14.48 4.61,-30.29 13.83,-47.41 65.84,-140.89 196.86,-211.35 393.08,-211.35 146.17,0 251.84,33.91 317.04,101.72 65.17,67.83 97.76,168.24 97.76,301.23l0 513.58c0,34.23 -4.6,59.26 -13.83,75.06 -9.22,15.81 -27.64,29.63 -55.31,41.48 -80.31,35.56 -198.18,53.34 -353.56,53.34zm-108.65 -327.91c0,59.27 32.92,88.89 98.76,88.89 43.46,0 75.73,-1.97 96.8,-5.92 6.57,-1.33 9.86,-5.93 9.86,-13.83l0 -158.03c-21.06,-1.32 -55.3,-1.97 -102.7,-1.97 -34.25,0 -59.93,7.24 -77.04,21.73 -17.12,14.49 -25.67,37.52 -25.67,69.13zm987.94 298.27c-25.02,0 -42.13,-5.6 -51.35,-16.79 -9.22,-11.2 -13.84,-29.95 -13.84,-56.3l0 -1315.53c0,-26.33 4.62,-45.1 13.84,-56.31 9.22,-11.19 26.33,-16.78 51.35,-16.78l195.56 0c25.02,0 42.46,5.59 52.33,16.78 9.89,11.21 14.83,29.97 14.83,56.31l0 1315.53c0,26.34 -4.94,45.1 -14.83,56.3 -9.87,11.19 -27.31,16.79 -52.33,16.79l-195.56 0zm1798.11 29.63c-176.48,0 -313.43,-48.07 -410.87,-144.2 -97.45,-96.13 -146.17,-228.47 -146.17,-397.02l0 -379.26c0,-168.56 48.72,-300.91 146.17,-397.04 97.44,-96.13 234.39,-144.18 410.87,-144.18 138.25,0 251.51,28.96 339.74,86.9 88.23,57.95 150.77,141.56 187.65,250.87 5.27,14.48 7.9,28.96 7.9,43.45 0,28.97 -19.11,49.38 -57.28,61.24l-183.7 57.28c-14.49,5.26 -27.66,7.89 -39.51,7.89 -13.16,0 -24.36,-4.6 -33.57,-13.82 -9.22,-9.22 -17.12,-24.37 -23.71,-45.43 -15.81,-46.1 -39.84,-79.67 -72.11,-100.74 -32.26,-21.08 -73.41,-31.6 -123.45,-31.6 -75.07,0 -128.39,18.1 -160,54.32 -31.6,36.2 -47.41,92.51 -47.41,168.88l0 383.22c0,76.39 16.79,132.67 50.36,168.88 33.59,36.22 87.91,54.33 162.97,54.33 135.63,0 203.46,-50.69 203.46,-152.09l0 -67.16 -189.63 0c-28.97,0 -48.72,-5.93 -59.25,-17.78 -10.55,-11.86 -15.81,-32.93 -15.81,-63.23l0 -132.33c0,-30.29 5.26,-51.69 15.81,-64.21 10.53,-12.5 30.27,-18.76 59.25,-18.76l454.31 0c28.97,0 49.39,6.26 61.24,18.76 11.86,12.52 17.78,33.91 17.78,64.21l0 270.62c0,90.86 -21.72,172.51 -65.17,244.93 -43.47,72.43 -107,129.38 -190.63,170.87 -83.61,41.47 -183.36,62.22 -299.24,62.22zm995.82 -29.63c-25.02,0 -42.79,-5.6 -53.32,-16.79 -10.55,-11.2 -15.81,-29.95 -15.81,-56.3l0 -780.24c0,-32.92 4.94,-57.61 14.82,-74.07 9.87,-16.48 29.95,-30.62 60.24,-42.47 47.41,-17.12 98.11,-30.94 152.1,-41.48 54,-10.53 121.16,-15.8 201.48,-15.8l100.73 0c26.34,0 44.78,5.27 55.31,15.8 10.55,10.54 15.81,28.96 15.81,55.31l0 144.2c0,27.64 -5.26,47.07 -15.81,58.26 -10.53,11.2 -28.96,16.8 -55.31,16.8l-90.85 0c-44.77,0 -77.7,3.96 -98.76,11.85 -7.91,1.31 -11.85,5.93 -11.85,13.83l0 638.02c0,27.66 -4.95,46.75 -14.83,57.28 -9.87,10.55 -27.98,15.81 -54.32,15.81l-189.63 0zm1262.51 29.63c-144.85,0 -255.81,-37.2 -332.83,-111.6 -77.04,-74.42 -115.56,-178.12 -115.56,-311.11l0 -240.98c0,-133.01 38.51,-236.71 115.56,-311.11 77.02,-74.42 187.98,-111.61 332.83,-111.61 144.84,0 255.8,37.19 332.82,111.61 77.04,74.4 115.56,178.1 115.56,311.11l0 240.98c0,132.99 -38.51,236.69 -115.56,311.11 -77.02,74.4 -187.98,111.6 -332.82,111.6zm-120.51 -416.79c0,85.6 40.18,128.39 120.51,128.39 80.31,0 120.5,-42.79 120.5,-128.39l0 -252.83c0,-86.91 -40.18,-130.38 -120.5,-130.38 -80.32,0 -120.51,43.47 -120.51,130.38l0 252.83zm1339.56 416.79c-136.95,0 -239.35,-35.88 -307.16,-107.66 -67.83,-71.77 -101.73,-174.81 -101.73,-309.13l0 -566.91c0,-26.32 5.26,-45.1 15.81,-56.3 10.53,-11.19 28.96,-16.78 55.31,-16.78l187.64 0c26.33,0 44.77,5.59 55.31,16.78 10.54,11.2 15.81,29.97 15.81,56.3l0 555.06c0,46.09 8.88,79.67 26.65,100.73 17.79,21.08 47.09,31.62 87.91,31.62 38.19,0 66.5,-3.96 84.92,-11.86 6.59,-2.63 9.89,-7.25 9.89,-13.84l0 -661.72c0,-27.65 4.94,-46.74 14.81,-57.28 9.88,-10.53 27.33,-15.8 52.35,-15.8l191.6 0c25.03,0 42.8,5.59 53.33,16.78 10.54,11.2 15.82,29.97 15.82,56.3l0 796.04c0,32.92 -5.28,57.29 -15.82,73.09 -10.53,15.81 -30.28,30.29 -59.26,43.45 -111.93,47.41 -239.65,71.12 -383.2,71.12zm920.76 402.96c-26.33,0 -44.44,-5.28 -54.31,-15.81 -9.88,-10.53 -14.83,-29.62 -14.83,-57.28l0 -1236.54c0,-32.92 4.28,-56.29 12.84,-70.12 8.57,-13.84 27.32,-27.98 56.3,-42.46 35.55,-18.45 85.27,-34.25 149.14,-47.41 63.87,-13.18 133.32,-19.76 208.4,-19.76 296.28,0 444.43,145.51 444.43,436.53l0 235.05c0,135.65 -34.23,238.69 -102.72,309.15 -68.47,70.44 -171.86,105.67 -310.11,105.67 -36.88,0 -80.34,-5.26 -130.37,-15.81l0 345.68c0,27.65 -4.94,46.75 -14.82,57.28 -9.87,10.53 -27.32,15.81 -52.34,15.81l-191.61 0zm260.75 -707.16c28.96,9.22 60.57,13.83 94.8,13.83 40.82,0 70.8,-9.87 89.88,-29.61 19.09,-19.77 28.64,-50.71 28.64,-92.84l0 -244.93c0,-48.74 -9.56,-84.28 -28.64,-106.68 -19.09,-22.39 -50.37,-33.57 -93.82,-33.57 -30.29,0 -58.6,3.94 -84.94,11.86 -3.95,1.3 -5.92,5.26 -5.92,11.85l0 470.11z"/>
  </g>
 </g>
</svg>
