<?xml version="1.0" encoding="UTF-8"?>
<!DOCTYPE svg PUBLIC "-//W3C//DTD SVG 1.1//EN" "http://www.w3.org/Graphics/SVG/1.1/DTD/svg11.dtd">
<!-- Creator: CorelDRAW -->
<svg xmlns="http://www.w3.org/2000/svg" xml:space="preserve" width="200mm" height="200mm" version="1.1" style="shape-rendering:geometricPrecision; text-rendering:geometricPrecision; image-rendering:optimizeQuality; fill-rule:evenodd; clip-rule:evenodd"
viewBox="0 0 1963.15 1963.15"
 xmlns:xlink="http://www.w3.org/1999/xlink"
 xmlns:xodm="http://www.corel.com/coreldraw/odm/2003">
 <defs>
  <style type="text/css">
   <![CDATA[
    .fil0 {fill:none}
    .fil2 {fill:#555C66}
    .fil1 {fill:white}
    .fil3 {fill:white;fill-rule:nonzero}
   ]]>
  </style>
 </defs>
 <g id="Layer_x0020_1">
  <metadata id="CorelCorpID_0Corel-Layer"/>
  <rect class="fil0" width="1963.15" height="1963.15"/>
  <g id="_2358696973440">
   <g>
    <g>
     <rect class="fil1" x="430.93" y="857.41" width="240.7" height="342.06" rx="34.73" ry="34.73"/>
     <rect class="fil1" x="816.21" y="667.07" width="240.7" height="532.4" rx="34.73" ry="54.05"/>
     <rect class="fil1" x="1201.49" y="438.54" width="240.7" height="760.92" rx="34.73" ry="77.26"/>
    </g>
    <path class="fil2" d="M1286.11 341.47l91.65 54.69c-11.98,29.86 -73.07,106.02 -93.71,131.43 -19.48,23.98 -34.33,39.35 -52.15,61.38 -70.68,87.4 -215.92,201.47 -312.32,265.8 -83.12,55.47 -200.54,118.3 -303.78,155.57 -58.67,21.19 -111.48,40.47 -174.32,57.54l-191.47 43.68c318.98,6.45 660.7,-125.89 899.91,-288.44 85.34,-57.99 122.88,-94.12 198.56,-157.13 47.6,-39.63 168.13,-181.67 173.49,-185.68 22.65,9.68 81.91,41.72 101.14,55.25l-1.12 -400.56c-35.56,15.32 -284.37,173.72 -335.89,206.47z"/>
   </g>
   <path class="fil3" d="M276.04 1476l5.47 0c6.1,0 11.14,4.55 11.91,10.44 1.61,8.18 3.79,15.21 6.56,21.1 2.64,5.61 5.82,10.22 9.55,13.84 3.58,3.41 7.82,6 12.72,7.75 5.16,1.84 11.1,2.77 17.86,2.77 2.08,0 4.04,-0.14 5.88,-0.41 1.93,-0.28 3.73,-0.69 5.39,-1.2l0.48 -0.14c1.43,-0.46 2.84,-1.05 4.21,-1.74 1.37,-0.69 2.65,-1.49 3.84,-2.39l-0.01 -0.02c1.17,-0.91 2.19,-1.87 3.03,-2.86 0.88,-1.03 1.65,-2.17 2.3,-3.39 0.54,-1 0.95,-2.12 1.24,-3.35 0.3,-1.28 0.45,-2.69 0.45,-4.23 0,-1.73 -0.19,-3.28 -0.57,-4.65 -0.39,-1.4 -0.99,-2.75 -1.79,-4.04l-0.03 -0.06 -0.01 0.01c-0.94,-1.54 -2.16,-3.09 -3.65,-4.66 -1.51,-1.58 -3.23,-3.12 -5.17,-4.62 -4.8,-2.85 -10.18,-6.06 -18.05,-10.79 -5.66,-3.4 -11.23,-6.79 -16.8,-10.24 -5.09,-3.15 -10.02,-6.25 -14.88,-9.35 -4.9,-3.12 -9.22,-5.94 -12.89,-8.4l-0.01 0.01c-9.94,-6.61 -17.48,-14.36 -22.6,-23.23 -5.29,-9.15 -7.93,-19.26 -7.93,-30.29 0,-4.34 0.45,-8.62 1.36,-12.82 0.9,-4.15 2.26,-8.22 4.1,-12.22 1.79,-3.85 3.96,-7.52 6.51,-10.97 2.46,-3.34 5.31,-6.46 8.52,-9.34l0.12 -0.11c3.15,-2.83 6.5,-5.33 10.05,-7.5 3.65,-2.23 7.54,-4.16 11.68,-5.79 4.13,-1.61 8.53,-2.84 13.18,-3.68 4.65,-0.84 9.29,-1.26 13.91,-1.26 3.07,0 6.19,0.19 9.37,0.58 2.9,0.35 6,0.93 9.32,1.73l0 -0.01c2.95,0.68 6.11,1.58 9.48,2.7 3.35,1.11 6.55,2.32 9.59,3.62l0.13 0.06 0.01 -0.01c1.55,0.69 3.39,1.54 5.41,2.49 1.05,0.5 2.84,1.38 5.16,2.54l0.01 -0.02c2.13,1.05 4.11,2.19 5.95,3.41l0.03 0.02 0.01 -0.02c1.71,1.14 3.48,2.52 5.31,4.14 1.81,1.6 3.43,3.33 4.88,5.17 1.42,1.82 2.67,3.75 3.76,5.8l0.11 0.21 0.04 -0.02c1.2,2.37 2.1,4.92 2.7,7.65 0.56,2.57 0.84,5.25 0.84,8.05l0 32.33c0,6.64 -5.38,12.02 -12.02,12.02l-5.77 0c-6.37,0 -11.58,-4.96 -11.99,-11.22 -0.6,-4.15 -1.39,-8 -2.37,-11.54 -1,-3.6 -2.2,-6.9 -3.63,-9.91l-0.02 -0.05c-1.42,-2.93 -2.95,-5.55 -4.6,-7.87 -1.6,-2.25 -3.34,-4.26 -5.22,-6.01l-0.16 -0.15c-1.84,-1.71 -3.74,-3.17 -5.69,-4.37 -1.94,-1.2 -4.04,-2.19 -6.29,-2.99 -2.33,-0.83 -4.69,-1.45 -7.09,-1.86 -2.32,-0.4 -4.74,-0.59 -7.26,-0.59 -1.49,0 -2.93,0.12 -4.3,0.36 -1.58,0.27 -3.03,0.64 -4.37,1.1l-0.01 0 0.01 0.04c-1.49,0.51 -2.8,1.09 -3.93,1.72 -1.2,0.67 -2.36,1.46 -3.5,2.37l-0.27 0.21c-0.82,0.72 -1.59,1.53 -2.31,2.42 -0.77,0.95 -1.47,2.02 -2.1,3.22 -0.49,0.93 -0.87,1.96 -1.14,3.1 -0.27,1.15 -0.41,2.4 -0.41,3.74 0,0.76 0.06,1.43 0.16,2.01 0.13,0.68 0.35,1.45 0.66,2.29l0.09 0.25c0.3,0.74 0.67,1.48 1.1,2.22 0.6,1.02 1.32,2.06 2.16,3.12l0.36 0.48c0.51,0.66 1.51,1.6 2.97,2.79 2.03,1.66 4.57,3.46 7.61,5.4l0.03 0.02 0.01 -0.02c3.43,2.2 7.41,4.61 11.93,7.24 4.47,2.59 9.57,5.45 15.31,8.56l0.28 0.15 0.01 -0.01c13.98,7.99 6.75,3.88 10.01,5.74l8.32 4.73 0.01 -0.01c2.39,1.32 4.92,2.81 7.54,4.42 2.6,1.6 4.93,3.13 7,4.56l0.08 0.06 0.01 -0.01c1.97,1.39 4.01,2.97 6.11,4.71 2.1,1.75 3.98,3.44 5.64,5.08l0.14 0.14c1.88,1.91 3.69,3.96 5.4,6.12 1.61,2.04 3.23,4.32 4.87,6.85l0.01 -0.01c1.55,2.36 2.92,4.89 4.11,7.57 1.17,2.62 2.1,5.29 2.81,8.02l0.04 0.14 0.01 -0c0.65,2.63 1.14,5.3 1.46,8.01 0.33,2.78 0.49,5.56 0.49,8.35 0,4.68 -0.52,9.33 -1.54,13.94 -1.02,4.59 -2.53,8.94 -4.51,13.06l-0.39 0.74c-1.88,3.75 -4.07,7.28 -6.59,10.59 -2.73,3.58 -5.77,6.85 -9.14,9.77l-0.28 0.24c-3.3,2.87 -6.82,5.39 -10.57,7.56 -3.81,2.2 -7.96,4.11 -12.47,5.73l0.01 0.02c-4.46,1.61 -9.04,2.81 -13.72,3.6 -4.74,0.8 -9.51,1.19 -14.32,1.19 -2.77,0 -5.76,-0.18 -8.96,-0.55 -3.04,-0.35 -6.15,-0.87 -9.3,-1.55 -2.97,-0.64 -6.19,-1.43 -9.66,-2.36 -2.77,-0.74 -6.32,-1.77 -10.65,-3.1l-0.61 -0.2 -0 0.01c-1.92,-0.7 -3.64,-1.34 -5.2,-1.93l-5.62 -2.17c-2.15,-0.85 -4.22,-1.76 -6.2,-2.75 -2.11,-1.04 -4.09,-2.13 -5.92,-3.28l-0.01 0.01c-2.06,-1.27 -4.06,-2.76 -6.01,-4.48 -1.97,-1.74 -3.66,-3.52 -5.07,-5.33 -1.87,-2.4 -3.29,-5.08 -4.25,-8.02 -0.92,-2.82 -1.39,-5.75 -1.39,-8.81l0 -35.24c0,-6.64 5.38,-12.02 12.02,-12.02zm338.83 -121.64l0 115.03c0,4.73 -0.14,9.53 -0.41,14.38 -0.27,4.86 -0.64,9.19 -1.12,13 -0.04,0.35 -0.1,0.7 -0.17,1.04 -0.51,3.74 -1.1,7.19 -1.76,10.33 -0.75,3.58 -1.62,6.93 -2.63,10.06l-0.09 0.28c-1.22,3.5 -2.7,6.79 -4.43,9.87 -1.79,3.18 -3.85,6.19 -6.16,9.02 -0.19,0.23 -0.38,0.45 -0.58,0.66 -2.15,2.57 -4.56,5.04 -7.23,7.4 -2.85,2.52 -5.95,4.87 -9.29,7.04l-0.1 0.06c-3.4,2.34 -7.08,4.36 -11.03,6.08 -4.18,1.81 -8.46,3.24 -12.84,4.28 -4.22,1 -8.87,1.77 -13.96,2.3 -4.97,0.52 -10.03,0.78 -15.18,0.78 -11.26,0 -21.44,-1.01 -30.52,-3.03 -9.48,-2.11 -17.65,-5.36 -24.5,-9.73l-0.46 -0.31c-3.3,-2.25 -6.27,-4.62 -8.94,-7.1 -2.72,-2.53 -5.28,-5.32 -7.7,-8.38l-0.04 -0.05c-2.43,-3.09 -4.55,-6.3 -6.35,-9.64 -1.85,-3.42 -3.4,-6.94 -4.65,-10.59l-0.14 -0.43c-0.96,-2.7 -1.76,-5.78 -2.41,-9.25 -0.63,-3.36 -1.15,-7.29 -1.56,-11.77 -0.4,-4.27 -0.68,-8.92 -0.87,-13.96 -0.21,-5.74 -0.31,-11.19 -0.31,-16.39l0 -76.34c0,-5.42 -0.33,-9.62 -1,-12.61 -0.36,-1.63 -0.63,-2.53 -0.8,-2.7 -0.37,-0.37 -0.71,-0.76 -1.02,-1.17l-0.21 -0.07c-0.73,-0.2 -1.48,-0.35 -2.27,-0.45 -0.86,-0.11 -2.06,-0.17 -3.62,-0.17l-7.34 0c-6.64,0 -12.02,-5.38 -12.02,-12.02l0 -5.47c0,-6.64 5.38,-12.02 12.02,-12.02l47.86 0c2.13,0 4.22,0.27 6.23,0.78 2.59,0.66 4.85,1.76 6.76,3.28l0.23 0.19c2.03,1.69 3.63,3.79 4.77,6.31 0.85,1.89 1.46,4.01 1.83,6.37 0.23,1.51 0.4,3.46 0.5,5.87 0.08,1.92 0.09,4.15 0.04,6.7 -0.05,2.3 -0.09,4.82 -0.11,7.56l0.01 94.77c0,2.51 0.02,4.26 0.06,5.36 0.05,1.49 0.15,3.47 0.28,5.87 0.17,2.36 0.34,4.47 0.52,6.28 0.19,1.88 0.44,3.95 0.75,6.24l0.02 -0c0.39,2.57 0.78,4.71 1.15,6.39 0.39,1.73 0.85,3.38 1.39,4.95l0.03 0.1 0.02 -0c0.5,1.51 1.01,2.82 1.52,3.91 0.48,1.01 1,1.93 1.56,2.75 0.21,0.31 0.4,0.62 0.58,0.94 0.4,0.63 0.89,1.27 1.44,1.92 0.62,0.72 1.43,1.52 2.41,2.38 0.22,0.19 0.42,0.38 0.62,0.58 0.65,0.53 1.41,1.08 2.28,1.65 1.21,0.79 2.35,1.45 3.4,1.95l0.32 0.16 0.01 -0.02c1.17,0.6 2.49,1.17 3.94,1.68 1.57,0.56 3.15,1.02 4.73,1.38l0.63 0.16c1.43,0.32 3.01,0.57 4.75,0.76 1.75,0.19 3.74,0.28 5.99,0.28 5.57,0 10.55,-0.57 14.98,-1.7l0.72 -0.16c2.11,-0.58 4.14,-1.23 6.06,-1.97 2,-0.77 4.02,-1.67 6.05,-2.71 2.18,-1.3 4.14,-2.61 5.86,-3.92 1.72,-1.31 3.22,-2.62 4.51,-3.92 1.16,-1.2 2.28,-2.56 3.33,-4.07 0.9,-1.29 1.72,-2.67 2.44,-4.14 0.55,-1.59 1.05,-3.44 1.5,-5.53 0.54,-2.52 1.02,-5.44 1.42,-8.74 0.04,-0.32 0.09,-0.64 0.15,-0.96 0.36,-3.05 0.64,-6.49 0.84,-10.33 0.2,-3.77 0.29,-8.31 0.29,-13.58l0 -113.75c0,-6.64 5.38,-12.02 12.02,-12.02l13.01 0c6.64,0 12.02,5.38 12.02,12.02zm80.59 207.48l-27.8 0c-6.64,0 -12.02,-5.38 -12.02,-12.02l0 -161.11c0,-3.18 -0.06,-5.8 -0.18,-7.83 -0.13,-2.18 -0.32,-4.04 -0.57,-5.57 -0.19,-1.17 -0.37,-2.1 -0.54,-2.79l-0.06 -0.04c-0.31,-0.22 -0.72,-0.42 -1.22,-0.59l-0.14 -0.05c-1.59,-0.58 -3.52,-0.87 -5.78,-0.87l-7.2 0c-6.64,0 -12.02,-5.38 -12.02,-12.02l0 -5.17c0,-6.64 5.38,-12.02 12.02,-12.02l71.27 0c4.3,0 8.69,0.13 13.16,0.37 4.41,0.24 8.32,0.58 11.75,1 0.35,0.04 0.69,0.1 1.03,0.17 3.51,0.48 6.78,1.07 9.8,1.76 3.35,0.77 6.61,1.72 9.79,2.86 3.24,1.16 6.21,2.45 8.91,3.88 2.9,1.53 5.6,3.23 8.08,5.1l0.5 0.4c2.28,1.73 4.45,3.65 6.51,5.73 2.18,2.21 4.24,4.63 6.18,7.25l0.01 0.02c2.14,2.6 3.98,5.23 5.51,7.88 0.15,0.25 0.28,0.5 0.4,0.76 1.54,2.76 2.82,5.62 3.85,8.58l0 0.01 0.04 -0.01c1.04,3.04 1.86,6.33 2.42,9.86 0.56,3.49 0.85,6.94 0.85,10.35 0,4.64 -0.42,9.23 -1.27,13.77 -0.84,4.51 -2.1,8.81 -3.79,12.91l0.02 0.01c-1.7,4.17 -3.79,8.03 -6.28,11.61 -2.42,3.48 -5.32,6.76 -8.68,9.84l0.02 0.02c-3.21,2.97 -6.79,5.59 -10.72,7.88 -3.78,2.2 -7.9,4.08 -12.38,5.65 -4.53,1.59 -9.19,2.75 -13.98,3.49 -4.8,0.74 -9.85,1.11 -15.14,1.11 -2.31,0 -4.97,-0.09 -7.99,-0.27 -2.76,-0.16 -5.52,-0.4 -8.26,-0.71l-0.41 -0.05c-1.19,-0.13 -2.43,-0.29 -3.7,-0.47l0 77.32c0,6.64 -5.38,12.02 -12.02,12.02zm12.02 -122.48l3.03 0.42c0.29,0.04 0.57,0.09 0.84,0.16 1.1,0.16 2.37,0.3 3.78,0.42 1.39,0.12 2.79,0.18 4.19,0.18 1.38,0 2.72,-0.15 4,-0.45 1.31,-0.31 2.66,-0.8 4.05,-1.48 1.51,-0.74 2.93,-1.6 4.22,-2.57l0.57 -0.41c1.13,-0.89 2.19,-1.89 3.17,-2.98l0.07 -0.07 -0.02 -0.02c1.18,-1.28 2.25,-2.71 3.23,-4.28l0.34 -0.52c0.82,-1.39 1.59,-2.98 2.31,-4.74l0.29 -0.65c0.59,-1.55 1.05,-3.2 1.38,-4.94 0.36,-1.92 0.54,-4.06 0.54,-6.41 0,-5.04 -0.72,-9.72 -2.15,-13.94 -0.71,-2.11 -1.55,-3.98 -2.49,-5.62 -0.9,-1.57 -2.04,-3.11 -3.4,-4.64l-0.04 -0.05c-1.28,-1.45 -2.65,-2.71 -4.1,-3.78 -1.54,-1.13 -3.18,-2.09 -4.93,-2.87l-0.13 -0.06 -0.01 0.01c-1.76,-0.81 -3.62,-1.42 -5.57,-1.82 -1.98,-0.4 -4.26,-0.61 -6.81,-0.61 -1.14,0 -2.14,0.02 -2.92,0.07 -0.94,0.06 -2.08,0.16 -3.45,0.32l0 61.36zm290.59 122.78l-39.43 0c-1.14,0 -2.57,-0.04 -4.37,-0.13 -1.6,-0.08 -2.98,-0.2 -4.12,-0.36 -1.58,-0.22 -3.16,-0.61 -4.73,-1.16l-0.04 -0.01 -0 0.01c-1.6,-0.56 -3.13,-1.29 -4.6,-2.2l-0.65 -0.43c-1.09,-0.72 -2.18,-1.57 -3.27,-2.57 -1.23,-1.13 -2.4,-2.39 -3.51,-3.8 -1.05,-1.26 -1.92,-2.36 -2.62,-3.29 -0.75,-0.98 -1.82,-2.46 -3.2,-4.4l-0.02 0.02 -52.49 -73.29 -1.68 0.14 -1.08 0.05 0 79.42c0,6.64 -5.38,12.02 -12.02,12.02l-26.91 0c-6.64,0 -12.02,-5.38 -12.02,-12.02l0 -161.31c0,-3.2 -0.06,-5.8 -0.18,-7.8 -0.12,-2 -0.31,-3.76 -0.57,-5.26 -0.16,-0.91 -0.33,-1.68 -0.53,-2.29 -0.57,-0.42 -1.19,-0.75 -1.86,-1 -1.39,-0.51 -3.18,-0.76 -5.35,-0.76l-7.34 0c-6.64,0 -12.02,-5.38 -12.02,-12.02l0 -5.91c0,-6.64 5.38,-12.02 12.02,-12.02l70.13 0c4.97,0 10.07,0.12 15.26,0.37 5.04,0.23 9.52,0.57 13.45,1.01l0.05 0.01c3.73,0.43 7.38,0.97 11,1.62 3.51,0.64 6.62,1.34 9.36,2.14l0.55 0.18 0.01 -0.03c2.62,0.9 5.37,2.06 8.23,3.47 2.76,1.35 5.38,2.84 7.85,4.45l0.14 0.09c2.68,1.79 5.16,3.72 7.42,5.78 2.14,1.95 4.24,4.19 6.28,6.73l0.02 -0.01c2.03,2.5 3.84,5.14 5.42,7.93 1.58,2.79 2.95,5.71 4.09,8.76 1.22,3.2 2.13,6.54 2.72,9.99 0.59,3.46 0.89,6.99 0.89,10.59 0,3.7 -0.31,7.36 -0.93,10.96 -0.62,3.61 -1.55,7.08 -2.78,10.42 -1.24,3.35 -2.83,6.59 -4.78,9.74 -1.92,3.11 -4.12,6 -6.58,8.64 -2.48,2.67 -5.28,5.14 -8.37,7.42 -3.04,2.24 -6.29,4.26 -9.75,6.06 -0.35,0.18 -0.71,0.35 -1.07,0.49 -1.88,0.93 -3.8,1.79 -5.75,2.57l30.51 42.32c0.27,0.37 0.51,0.75 0.72,1.13 1.68,2.67 3.51,5.35 5.46,8.03 0.17,0.24 0.33,0.48 0.49,0.73 1.56,2.1 3.06,3.96 4.51,5.58l0.06 0.07 0.03 -0.03c1.62,1.84 3.09,3.34 4.43,4.53 1.44,1.28 2.85,2.37 4.22,3.27 1.33,0.88 2.73,1.65 4.2,2.32 1.41,0.64 2.84,1.17 4.25,1.55 1.49,0.41 3.39,0.84 5.75,1.31 2.38,0.47 4.6,0.85 6.65,1.12 6.04,0.79 10.44,5.95 10.43,11.88l0.04 0 0 5.17c0,6.64 -5.38,12.02 -12.02,12.02zm-125.83 -124.4l1.39 -0.04c3.55,-0.13 6.97,-0.58 10.24,-1.33l-0 -0.01c3.27,-0.77 6.28,-1.74 9.05,-2.94 2.66,-1.14 5.05,-2.46 7.17,-3.96l0.32 -0.21c1.93,-1.41 3.67,-2.95 5.2,-4.64 1.53,-1.69 2.83,-3.5 3.88,-5.46l0.05 -0.09c1.04,-1.9 1.83,-3.87 2.35,-5.92 0.52,-2.03 0.78,-4.16 0.78,-6.4 0,-2.25 -0.18,-4.4 -0.55,-6.44 -0.36,-2.03 -0.88,-3.93 -1.55,-5.71l-0.02 0.01c-0.74,-1.94 -1.56,-3.63 -2.45,-5.05 -0.89,-1.42 -1.97,-2.8 -3.25,-4.13l-0.02 -0.03c-1.23,-1.26 -2.58,-2.38 -4.04,-3.36 -1.51,-1.01 -3.22,-1.92 -5.15,-2.72 -1.87,-0.78 -3.81,-1.36 -5.8,-1.73 -2.07,-0.39 -4.42,-0.58 -7.04,-0.58 -1.1,0 -2.29,0.05 -3.55,0.15 -1.55,0.12 -3.08,0.29 -4.56,0.5l-2.44 0.33 0 59.74zm197.83 -60.42l0 52.85 65.51 0c6.64,0 12.02,5.38 12.02,12.02l0 10.65c0,6.64 -5.38,12.02 -12.02,12.02l-65.51 0 -0 58.08c0.02,1.2 0.07,2.45 0.15,3.81l0.87 0.06c0.66,0.04 1.66,0.06 2.98,0.06l32.77 0c3.92,0 6.44,-0.01 7.38,-0.03 1.77,-0.04 3.65,-0.13 5.67,-0.27 1.41,-0.09 2.72,-0.25 3.93,-0.45 1.16,-0.2 2.13,-0.42 2.91,-0.66l0.46 -0.13c0.55,-0.18 1.1,-0.41 1.67,-0.68 0.68,-0.33 1.25,-0.66 1.73,-1 0.65,-0.45 1.44,-1.08 2.34,-1.86 0.93,-0.8 1.93,-1.73 2.99,-2.77 1.15,-1.17 2.42,-2.61 3.82,-4.32 1.44,-1.76 2.74,-3.46 3.88,-5.1l-0.01 -0.01c1.27,-1.86 2.62,-4.03 4.04,-6.51 1.32,-2.3 2.65,-4.82 3.99,-7.56 2.08,-4.27 6.35,-6.75 10.8,-6.75l6.06 -0.01c6.64,0 12.02,5.38 12.02,12.02 0,1.55 -0.29,3.03 -0.82,4.38l-16.59 48.26c-1.71,4.98 -6.37,8.11 -11.36,8.11l-121.19 0c-6.64,0 -12.02,-5.38 -12.02,-12.02l0 -160.82c0,-3.61 -0.04,-6.33 -0.11,-8.07 -0.08,-1.96 -0.23,-3.82 -0.44,-5.6 -0.08,-0.7 -0.17,-1.25 -0.26,-1.65 -0.31,-0.24 -0.78,-0.47 -1.4,-0.69l-0.64 -0.25c-1.44,-0.4 -3.37,-0.6 -5.79,-0.6l-6.8 0c-6.64,0 -12.02,-5.38 -12.02,-12.02l0 -5.17c0,-6.64 5.38,-12.02 12.02,-12.02l148.64 0c6.64,0 12.02,5.38 12.02,12.02l0 42.68c0,6.64 -5.38,12.02 -12.02,12.02l-3.3 0c-6.13,0 -11.19,-4.59 -11.92,-10.53 -0.57,-2.7 -1.18,-5.28 -1.83,-7.72 -0.64,-2.43 -1.29,-4.59 -1.95,-6.44l-0.1 -0.3c-0.41,-1.05 -0.87,-1.97 -1.38,-2.76 -0.41,-0.63 -0.81,-1.13 -1.21,-1.48 -0.41,-0.34 -0.95,-0.67 -1.63,-0.97 -0.9,-0.4 -1.89,-0.71 -2.95,-0.91l-0 0.02c-1.78,-0.31 -3.85,-0.55 -6.18,-0.71 -2.29,-0.16 -5.08,-0.24 -8.41,-0.24l-40.82 0zm363.29 218.23c-6.57,0 -12.57,-0.4 -18.01,-1.22 -5.72,-0.86 -10.83,-2.19 -15.33,-4.01l-0.63 -0.27c-4.4,-1.81 -8.33,-4.06 -11.79,-6.74 -3.81,-2.96 -7.05,-6.38 -9.69,-10.26 -2.5,-3.68 -4.57,-7.77 -6.2,-12.27 -1.58,-4.37 -2.73,-9.04 -3.46,-13.99l-0.05 -0.4c-0.63,-4.4 -1.12,-9.16 -1.45,-14.27 -0.34,-5.31 -0.52,-10.7 -0.52,-16.15l0 -75.3 -52.55 114.33c-2.01,4.4 -6.35,7 -10.89,7l0 0.04 -4.63 0c-5.22,0 -9.66,-3.33 -11.32,-7.97l-52.12 -113.4 0 109.36c0,6.64 -5.38,12.02 -12.02,12.02l-12.42 0c-6.64,0 -12.02,-5.38 -12.02,-12.02l0 -195.66c0,-6.64 5.38,-12.02 12.02,-12.02l27.55 0c5.11,0 9.48,3.19 11.21,7.69l59.59 128.5 58.62 -129.1c2,-4.44 6.37,-7.07 10.94,-7.07l0 -0.02 27.55 0c6.64,0 12.02,5.38 12.02,12.02l0 172.01c0.02,1.63 0.09,3.6 0.22,5.88 0.12,2.21 0.28,4.29 0.47,6.24 0.2,2.12 0.47,4.19 0.79,6.21 0.27,1.73 0.68,3.82 1.19,6.22l0.07 0.38c0.38,1.6 0.83,3.1 1.34,4.47 0.51,1.38 1.16,2.78 1.95,4.19 0.62,1.1 1.3,2.09 2.07,2.96 0.69,0.78 1.44,1.45 2.25,2.02l0.49 0.36c0.36,0.19 0.8,0.35 1.31,0.5 0.91,0.25 2.05,0.38 3.41,0.38 6.64,0 12.02,5.38 12.02,12.02l0 5.32c0,6.64 -5.38,12.02 -12.02,12.02zm80.28 -218.23l0 52.85 65.51 0c6.64,0 12.02,5.38 12.02,12.02l0 10.65c0,6.64 -5.38,12.02 -12.02,12.02l-65.51 0 -0 58.08c0.02,1.2 0.07,2.45 0.15,3.81l0.87 0.06c0.66,0.04 1.66,0.06 2.98,0.06l32.77 0c3.92,0 6.44,-0.01 7.38,-0.03 1.78,-0.04 3.65,-0.13 5.67,-0.27 1.41,-0.09 2.72,-0.25 3.93,-0.45 1.16,-0.2 2.13,-0.42 2.91,-0.66l0.46 -0.13c0.55,-0.18 1.1,-0.41 1.67,-0.68 0.68,-0.33 1.25,-0.66 1.73,-1 0.65,-0.45 1.44,-1.08 2.34,-1.86 0.93,-0.8 1.93,-1.73 2.99,-2.77 1.15,-1.17 2.42,-2.61 3.82,-4.32 1.44,-1.76 2.74,-3.46 3.88,-5.1l-0.01 -0.01c1.27,-1.86 2.62,-4.03 4.04,-6.51 1.32,-2.3 2.65,-4.82 3.99,-7.56 2.08,-4.27 6.35,-6.75 10.8,-6.75l6.06 -0.01c6.64,0 12.02,5.38 12.02,12.02 0,1.55 -0.29,3.03 -0.82,4.38l-16.59 48.26c-1.71,4.98 -6.37,8.11 -11.36,8.11l-121.19 0c-6.64,0 -12.02,-5.38 -12.02,-12.02l0 -160.82c0,-3.61 -0.03,-6.33 -0.11,-8.07 -0.08,-1.96 -0.23,-3.82 -0.44,-5.6 -0.08,-0.7 -0.17,-1.25 -0.26,-1.65 -0.31,-0.24 -0.78,-0.47 -1.4,-0.69l-0.64 -0.25c-1.44,-0.4 -3.37,-0.6 -5.79,-0.6l-6.8 0c-6.64,0 -12.02,-5.38 -12.02,-12.02l0 -5.17c0,-6.64 5.38,-12.02 12.02,-12.02l148.64 0c6.64,0 12.02,5.38 12.02,12.02l0 42.68c0,6.64 -5.38,12.02 -12.02,12.02l-3.3 0c-6.13,0 -11.19,-4.59 -11.93,-10.53 -0.57,-2.7 -1.18,-5.28 -1.83,-7.72 -0.64,-2.43 -1.29,-4.59 -1.95,-6.44l-0.1 -0.3c-0.41,-1.05 -0.87,-1.97 -1.38,-2.76 -0.41,-0.63 -0.81,-1.13 -1.21,-1.48 -0.41,-0.34 -0.95,-0.67 -1.63,-0.97 -0.9,-0.4 -1.89,-0.71 -2.95,-0.91l-0 0.02c-1.78,-0.31 -3.84,-0.55 -6.18,-0.71 -2.29,-0.16 -5.08,-0.24 -8.41,-0.24l-40.82 0z"/>
   <path class="fil3" d="M270.57 1714.77c-2.49,0 -4.24,-0.54 -5.25,-1.61 -1.02,-1.07 -1.53,-2.85 -1.53,-5.34l0 -106.42c0,-2.49 0.51,-4.27 1.53,-5.34 1.02,-1.07 2.77,-1.61 5.25,-1.61l64.06 0c2.49,0 4.24,0.51 5.25,1.53 1.02,1.02 1.53,2.82 1.53,5.42l0 13.05c0,2.6 -0.51,4.43 -1.53,5.51 -1.02,1.07 -2.77,1.61 -5.25,1.61l-40.67 0 0 22.2 32.2 0c2.49,0 4.24,0.51 5.25,1.53 1.02,1.02 1.53,2.82 1.53,5.42l0 13.05c0,2.6 -0.51,4.43 -1.53,5.51 -1.02,1.07 -2.77,1.61 -5.25,1.61l-32.2 0 0 36.94c0,2.49 -0.51,4.26 -1.53,5.34 -1.02,1.07 -2.77,1.61 -5.25,1.61l-16.61 0zm106.79 0c-2.26,0 -3.87,-0.48 -4.83,-1.44 -0.96,-0.96 -1.44,-2.57 -1.44,-4.83l0 -75.58c0,-2.26 0.48,-3.87 1.44,-4.83 0.96,-0.96 2.57,-1.44 4.83,-1.44l15.59 0c2.37,0 4.01,0.48 4.91,1.44 0.9,0.96 1.36,2.57 1.36,4.83l0 75.58c0,2.26 -0.45,3.87 -1.36,4.83 -0.9,0.96 -2.54,1.44 -4.91,1.44l-15.59 0zm-7.29 -112.35c0,-4.52 0.79,-7.6 2.37,-9.24 1.58,-1.64 4.46,-2.46 8.64,-2.46l8.14 0c4.18,0 7.06,0.82 8.64,2.46 1.58,1.64 2.37,4.72 2.37,9.24l0 2.37c0,4.52 -0.76,7.57 -2.29,9.15 -1.52,1.58 -4.43,2.37 -8.73,2.37l-8.14 0c-4.29,0 -7.2,-0.79 -8.73,-2.37 -1.53,-1.58 -2.29,-4.63 -2.29,-9.15l0 -2.37zm69.33 112.35c-2.15,0 -3.67,-0.48 -4.57,-1.44 -0.91,-0.96 -1.36,-2.57 -1.36,-4.83l0 -68.29c0,-2.82 0.42,-4.91 1.27,-6.27 0.85,-1.35 2.57,-2.6 5.17,-3.73 4.41,-1.81 9.21,-3.28 14.41,-4.41 5.2,-1.13 11.35,-1.69 18.47,-1.69 11.75,0 20.53,3.08 26.35,9.23 5.82,6.16 8.73,15 8.73,26.52l0 48.64c0,2.26 -0.45,3.87 -1.35,4.83 -0.9,0.96 -2.49,1.44 -4.74,1.44l-16.1 0c-2.26,0 -3.84,-0.48 -4.74,-1.44 -0.9,-0.96 -1.35,-2.57 -1.35,-4.83l0 -47.62c0,-7.57 -3.33,-11.35 -10,-11.35 -2.6,0 -5.08,0.39 -7.46,1.19 -0.34,0.11 -0.51,0.34 -0.51,0.68l0 57.11c0,2.37 -0.42,4.01 -1.27,4.91 -0.85,0.91 -2.4,1.36 -4.66,1.36l-16.27 0zm135.09 2.54c-13.11,0 -22.54,-2.2 -28.3,-6.61 -5.76,-4.41 -8.64,-11.58 -8.64,-21.52 0,-9.94 2.88,-17.06 8.64,-21.35 5.76,-4.29 15.25,-6.44 28.47,-6.44 2.71,0 5.42,0.11 8.13,0.34l0 -5.42c0,-3.62 -0.68,-6.13 -2.03,-7.54 -1.35,-1.41 -3.5,-2.12 -6.44,-2.12 -4.41,0 -7.85,2.09 -10.34,6.27 -0.68,1.13 -1.36,1.98 -2.03,2.54 -0.68,0.57 -1.53,0.85 -2.54,0.85 -1.02,0 -2.37,-0.34 -4.07,-1.02l-10.68 -4.24c-2.94,-1.24 -4.41,-2.82 -4.41,-4.74 0,-1.24 0.4,-2.6 1.19,-4.07 5.65,-12.09 16.89,-18.13 33.72,-18.13 12.54,0 21.61,2.91 27.2,8.73 5.59,5.82 8.39,14.43 8.39,25.84l0 44.06c0,2.94 -0.39,5.08 -1.19,6.44 -0.79,1.36 -2.37,2.54 -4.74,3.56 -6.89,3.05 -17,4.58 -30.33,4.58zm-9.32 -28.13c0,5.08 2.82,7.63 8.47,7.63 3.73,0 6.5,-0.17 8.3,-0.51 0.56,-0.11 0.85,-0.51 0.85,-1.19l0 -13.56c-1.81,-0.11 -4.74,-0.17 -8.81,-0.17 -2.94,0 -5.14,0.62 -6.61,1.86 -1.47,1.24 -2.2,3.22 -2.2,5.93zm84.42 25.59c-2.15,0 -3.67,-0.48 -4.57,-1.44 -0.91,-0.96 -1.36,-2.57 -1.36,-4.83l0 -68.29c0,-2.82 0.42,-4.91 1.27,-6.27 0.85,-1.35 2.57,-2.6 5.17,-3.73 4.41,-1.81 9.21,-3.28 14.41,-4.41 5.2,-1.13 11.35,-1.69 18.47,-1.69 11.75,0 20.53,3.08 26.35,9.23 5.82,6.16 8.73,15 8.73,26.52l0 48.64c0,2.26 -0.45,3.87 -1.35,4.83 -0.9,0.96 -2.49,1.44 -4.74,1.44l-16.1 0c-2.26,0 -3.84,-0.48 -4.74,-1.44 -0.9,-0.96 -1.35,-2.57 -1.35,-4.83l0 -47.62c0,-7.57 -3.33,-11.35 -10,-11.35 -2.6,0 -5.08,0.39 -7.46,1.19 -0.34,0.11 -0.51,0.34 -0.51,0.68l0 57.11c0,2.37 -0.42,4.01 -1.27,4.91 -0.85,0.91 -2.4,1.36 -4.66,1.36l-16.27 0zm136.1 2.54c-12.43,0 -21.63,-3.14 -27.62,-9.41 -5.99,-6.27 -8.98,-15.22 -8.98,-26.86l0 -20.67c0,-11.64 3.16,-20.59 9.49,-26.86 6.33,-6.27 15.93,-9.41 28.81,-9.41 9.15,0 16.64,2.12 22.45,6.35 5.82,4.24 9.8,9.74 11.95,16.52 0.45,1.36 0.68,2.6 0.68,3.73 0,2.49 -1.53,4.24 -4.58,5.25l-13.39 3.73c-1.13,0.34 -2.2,0.51 -3.22,0.51 -1.24,0 -2.29,-0.39 -3.14,-1.19 -0.85,-0.79 -1.55,-2.09 -2.12,-3.9 -0.9,-2.6 -2.15,-4.43 -3.73,-5.51 -1.58,-1.07 -3.62,-1.61 -6.1,-1.61 -5.99,0 -8.98,3.73 -8.98,11.18l0 23.05c0,7.46 2.88,11.18 8.64,11.18 4.97,0 8.36,-2.6 10.17,-7.79 0.68,-1.81 1.38,-3.08 2.12,-3.81 0.73,-0.73 1.67,-1.1 2.8,-1.1 1.02,0 2.15,0.23 3.39,0.68l13.56 4.07c3.28,1.02 4.91,2.71 4.91,5.08 0,1.36 -0.28,2.65 -0.85,3.9 -2.94,7.46 -7.34,13.13 -13.22,17.03 -5.87,3.9 -13.56,5.85 -23.05,5.85zm73.06 -2.54c-2.26,0 -3.87,-0.48 -4.83,-1.44 -0.96,-0.96 -1.44,-2.57 -1.44,-4.83l0 -75.58c0,-2.26 0.48,-3.87 1.44,-4.83 0.96,-0.96 2.57,-1.44 4.83,-1.44l15.59 0c2.37,0 4.01,0.48 4.91,1.44 0.91,0.96 1.36,2.57 1.36,4.83l0 75.58c0,2.26 -0.45,3.87 -1.36,4.83 -0.9,0.96 -2.54,1.44 -4.91,1.44l-15.59 0zm-7.29 -112.35c0,-4.52 0.79,-7.6 2.37,-9.24 1.58,-1.64 4.46,-2.46 8.64,-2.46l8.14 0c4.18,0 7.06,0.82 8.64,2.46 1.58,1.64 2.37,4.72 2.37,9.24l0 2.37c0,4.52 -0.76,7.57 -2.29,9.15 -1.52,1.58 -4.43,2.37 -8.73,2.37l-8.14 0c-4.29,0 -7.2,-0.79 -8.73,-2.37 -1.53,-1.58 -2.29,-4.63 -2.29,-9.15l0 -2.37zm96.79 114.9c-13.11,0 -22.54,-2.2 -28.3,-6.61 -5.76,-4.41 -8.64,-11.58 -8.64,-21.52 0,-9.94 2.88,-17.06 8.64,-21.35 5.76,-4.29 15.25,-6.44 28.47,-6.44 2.71,0 5.42,0.11 8.13,0.34l0 -5.42c0,-3.62 -0.68,-6.13 -2.03,-7.54 -1.36,-1.41 -3.5,-2.12 -6.44,-2.12 -4.41,0 -7.85,2.09 -10.34,6.27 -0.68,1.13 -1.36,1.98 -2.03,2.54 -0.68,0.57 -1.53,0.85 -2.54,0.85 -1.02,0 -2.37,-0.34 -4.07,-1.02l-10.68 -4.24c-2.94,-1.24 -4.41,-2.82 -4.41,-4.74 0,-1.24 0.39,-2.6 1.19,-4.07 5.65,-12.09 16.89,-18.13 33.72,-18.13 12.54,0 21.61,2.91 27.2,8.73 5.59,5.82 8.39,14.43 8.39,25.84l0 44.06c0,2.94 -0.4,5.08 -1.19,6.44 -0.79,1.36 -2.37,2.54 -4.74,3.56 -6.89,3.05 -17,4.58 -30.33,4.58zm-9.32 -28.13c0,5.08 2.82,7.63 8.47,7.63 3.73,0 6.5,-0.17 8.3,-0.51 0.56,-0.11 0.85,-0.51 0.85,-1.19l0 -13.56c-1.81,-0.11 -4.74,-0.17 -8.81,-0.17 -2.94,0 -5.14,0.62 -6.61,1.86 -1.47,1.24 -2.2,3.22 -2.2,5.93zm84.76 25.59c-2.15,0 -3.62,-0.48 -4.41,-1.44 -0.79,-0.96 -1.19,-2.57 -1.19,-4.83l0 -112.86c0,-2.26 0.4,-3.87 1.19,-4.83 0.79,-0.96 2.26,-1.44 4.41,-1.44l16.78 0c2.15,0 3.64,0.48 4.49,1.44 0.85,0.96 1.27,2.57 1.27,4.83l0 112.86c0,2.26 -0.42,3.87 -1.27,4.83 -0.85,0.96 -2.34,1.44 -4.49,1.44l-16.78 0zm154.26 2.54c-15.14,0 -26.89,-4.12 -35.25,-12.37 -8.36,-8.25 -12.54,-19.6 -12.54,-34.06l0 -32.54c0,-14.46 4.18,-25.82 12.54,-34.06 8.36,-8.25 20.11,-12.37 35.25,-12.37 11.86,0 21.58,2.49 29.15,7.46 7.57,4.97 12.94,12.14 16.1,21.52 0.45,1.24 0.68,2.49 0.68,3.73 0,2.49 -1.64,4.24 -4.91,5.25l-15.76 4.91c-1.24,0.45 -2.37,0.68 -3.39,0.68 -1.13,0 -2.09,-0.39 -2.88,-1.19 -0.79,-0.79 -1.47,-2.09 -2.03,-3.9 -1.36,-3.96 -3.42,-6.84 -6.19,-8.64 -2.77,-1.81 -6.3,-2.71 -10.59,-2.71 -6.44,0 -11.02,1.55 -13.73,4.66 -2.71,3.11 -4.07,7.94 -4.07,14.49l0 32.88c0,6.55 1.44,11.38 4.32,14.49 2.88,3.11 7.54,4.66 13.98,4.66 11.64,0 17.45,-4.35 17.45,-13.05l0 -5.76 -16.27 0c-2.49,0 -4.18,-0.51 -5.08,-1.52 -0.91,-1.02 -1.36,-2.82 -1.36,-5.42l0 -11.35c0,-2.6 0.45,-4.43 1.36,-5.51 0.9,-1.07 2.6,-1.61 5.08,-1.61l38.98 0c2.49,0 4.24,0.54 5.25,1.61 1.02,1.07 1.53,2.91 1.53,5.51l0 23.22c0,7.8 -1.86,14.8 -5.59,21.01 -3.73,6.21 -9.18,11.1 -16.35,14.66 -7.17,3.56 -15.73,5.34 -25.67,5.34zm85.43 -2.54c-2.15,0 -3.67,-0.48 -4.57,-1.44 -0.91,-0.96 -1.36,-2.57 -1.36,-4.83l0 -66.94c0,-2.82 0.42,-4.94 1.27,-6.35 0.85,-1.41 2.57,-2.63 5.17,-3.64 4.07,-1.47 8.42,-2.65 13.05,-3.56 4.63,-0.9 10.39,-1.35 17.29,-1.35l8.64 0c2.26,0 3.84,0.45 4.74,1.35 0.91,0.91 1.36,2.49 1.36,4.74l0 12.37c0,2.37 -0.45,4.04 -1.36,5 -0.9,0.96 -2.49,1.44 -4.74,1.44l-7.79 0c-3.84,0 -6.67,0.34 -8.47,1.02 -0.68,0.11 -1.02,0.51 -1.02,1.19l0 54.74c0,2.37 -0.42,4.01 -1.27,4.91 -0.85,0.91 -2.4,1.36 -4.66,1.36l-16.27 0zm108.31 2.54c-12.43,0 -21.95,-3.19 -28.55,-9.58 -6.61,-6.38 -9.91,-15.28 -9.91,-26.69l0 -20.67c0,-11.41 3.3,-20.31 9.91,-26.69 6.61,-6.38 16.13,-9.57 28.55,-9.57 12.43,0 21.95,3.19 28.55,9.57 6.61,6.38 9.91,15.28 9.91,26.69l0 20.67c0,11.41 -3.3,20.31 -9.91,26.69 -6.61,6.38 -16.13,9.58 -28.55,9.58zm-10.34 -35.76c0,7.34 3.45,11.02 10.34,11.02 6.89,0 10.34,-3.67 10.34,-11.02l0 -21.69c0,-7.46 -3.45,-11.19 -10.34,-11.19 -6.89,0 -10.34,3.73 -10.34,11.19l0 21.69zm114.92 35.76c-11.75,0 -20.53,-3.08 -26.35,-9.24 -5.82,-6.16 -8.73,-15 -8.73,-26.52l0 -48.64c0,-2.26 0.45,-3.87 1.36,-4.83 0.9,-0.96 2.49,-1.44 4.74,-1.44l16.1 0c2.26,0 3.84,0.48 4.74,1.44 0.9,0.96 1.36,2.57 1.36,4.83l0 47.62c0,3.95 0.76,6.83 2.29,8.64 1.53,1.81 4.04,2.71 7.54,2.71 3.28,0 5.7,-0.34 7.29,-1.02 0.57,-0.23 0.85,-0.62 0.85,-1.19l0 -56.77c0,-2.37 0.42,-4.01 1.27,-4.91 0.85,-0.9 2.34,-1.35 4.49,-1.35l16.44 0c2.15,0 3.67,0.48 4.58,1.44 0.9,0.96 1.36,2.57 1.36,4.83l0 68.29c0,2.82 -0.45,4.91 -1.36,6.27 -0.9,1.36 -2.6,2.6 -5.08,3.73 -9.6,4.07 -20.56,6.1 -32.88,6.1zm78.99 34.57c-2.26,0 -3.81,-0.45 -4.66,-1.36 -0.85,-0.9 -1.27,-2.54 -1.27,-4.91l0 -106.08c0,-2.82 0.37,-4.83 1.1,-6.02 0.73,-1.19 2.34,-2.4 4.83,-3.64 3.05,-1.58 7.32,-2.94 12.79,-4.07 5.48,-1.13 11.44,-1.69 17.88,-1.69 25.42,0 38.13,12.48 38.13,37.45l0 20.17c0,11.64 -2.94,20.48 -8.81,26.52 -5.87,6.04 -14.74,9.07 -26.6,9.07 -3.16,0 -6.89,-0.45 -11.18,-1.36l0 29.66c0,2.37 -0.42,4.01 -1.27,4.91 -0.85,0.9 -2.34,1.36 -4.49,1.36l-16.44 0zm22.37 -60.67c2.49,0.79 5.2,1.19 8.13,1.19 3.5,0 6.07,-0.85 7.71,-2.54 1.64,-1.7 2.46,-4.35 2.46,-7.96l0 -21.01c0,-4.18 -0.82,-7.23 -2.46,-9.15 -1.64,-1.92 -4.32,-2.88 -8.05,-2.88 -2.6,0 -5.03,0.34 -7.29,1.02 -0.34,0.11 -0.51,0.45 -0.51,1.02l0 40.33z"/>
  </g>
 </g>
</svg>
